<svg width="30" height="60" viewBox="0 0 30 60" fill="none" xmlns="http://www.w3.org/2000/svg">
<path fill-rule="evenodd" clip-rule="evenodd" d="M25.2345 52.8902V44.6482C25.2345 44.4075 25.4283 44.2137 25.6689 44.2137H26.5316C26.7691 44.2137 26.966 44.4075 26.966 44.6482V52.8902C26.966 53.1277 26.7723 53.3247 26.5316 53.3247H25.6689C25.4283 53.3247 25.2345 53.1309 25.2345 52.8902Z" fill="#AAB5FF"/>
<path fill-rule="evenodd" clip-rule="evenodd" d="M25.3908 52.8902V44.6482C25.3908 44.495 25.5158 44.3731 25.669 44.3731H26.5316C26.6848 44.3731 26.8067 44.4981 26.8067 44.6482V52.8902C26.8067 53.0433 26.6817 53.1652 26.5316 53.1652H25.669C25.5158 53.1683 25.3908 53.0433 25.3908 52.8902Z" fill="#F2F2F2"/>
<path fill-rule="evenodd" clip-rule="evenodd" d="M2.51819 52.8902L2.51819 44.6482C2.51819 44.4075 2.71197 44.2137 2.95264 44.2137H3.81528C4.05282 44.2137 4.24973 44.4075 4.24973 44.6482V52.8902C4.24973 53.1277 4.05595 53.3247 3.81528 53.3247H2.94951C2.71197 53.3247 2.51819 53.1309 2.51819 52.8902Z" fill="#AAB5FF"/>
<path fill-rule="evenodd" clip-rule="evenodd" d="M2.67444 52.8902L2.67444 44.6482C2.67444 44.495 2.79946 44.3731 2.94949 44.3731H3.81213C3.96528 44.3731 4.08718 44.4981 4.08718 44.6482V52.8902C4.08718 53.0433 3.96216 53.1652 3.81213 53.1652H2.94949C2.79946 53.1683 2.67444 53.0433 2.67444 52.8902Z" fill="#F2F2F2"/>
<path fill-rule="evenodd" clip-rule="evenodd" d="M25.9034 18.1687V9.92669C25.9034 9.68915 26.0972 9.49225 26.3378 9.49225H27.2036C27.4411 9.49225 27.6381 9.68603 27.6381 9.92669V18.1687C27.6381 18.4062 27.4443 18.6032 27.2036 18.6032H26.3378C26.0972 18.6032 25.9034 18.4094 25.9034 18.1687Z" fill="#AAB5FF"/>
<path fill-rule="evenodd" clip-rule="evenodd" d="M26.0596 18.1687V9.92669C26.0596 9.77354 26.1847 9.65164 26.3347 9.65164H27.2005C27.3536 9.65164 27.4755 9.77666 27.4755 9.92669V18.1687C27.4755 18.3219 27.3505 18.4438 27.2005 18.4438H26.3347C26.1847 18.4469 26.0596 18.3219 26.0596 18.1687Z" fill="#F2F2F2"/>
<path fill-rule="evenodd" clip-rule="evenodd" d="M1.8493 18.1687L1.8493 9.92669C1.8493 9.68915 2.04309 9.49225 2.28375 9.49225H3.1464C3.38394 9.49225 3.58085 9.68603 3.58085 9.92669L3.58085 18.1687C3.58085 18.4062 3.38706 18.6032 3.1464 18.6032H2.28375C2.04309 18.6032 1.8493 18.4094 1.8493 18.1687Z" fill="#AAB5FF"/>
<path fill-rule="evenodd" clip-rule="evenodd" d="M2.00555 18.1687L2.00555 9.92669C2.00555 9.77354 2.13058 9.65164 2.2806 9.65164H3.14325C3.2964 9.65164 3.41829 9.77666 3.41829 9.92669L3.41829 18.1687C3.41829 18.3219 3.29327 18.4438 3.14325 18.4438H2.2806C2.13058 18.4469 2.00555 18.3219 2.00555 18.1687Z" fill="#F2F2F2"/>
<path fill-rule="evenodd" clip-rule="evenodd" d="M3.45267 54.3998L2.4025 5.6072C2.35561 3.48496 7.23769 0 9.34117 0L20.1336 0C22.2402 0 27.1192 3.48496 27.0754 5.6072L26.0252 54.3998C25.8721 61.6323 3.58707 61.6917 3.45267 54.3998Z" fill="#AAB5FF"/>
<path fill-rule="evenodd" clip-rule="evenodd" d="M3.61212 54.3967L2.56194 5.60408C2.51818 3.55061 7.34712 0.156281 9.34433 0.156281L20.1368 0.156281C22.134 0.156281 26.9629 3.55061 26.9192 5.60408L25.869 54.3967C25.719 61.4197 3.74026 61.4791 3.61212 54.3967Z" fill="#AAB5FF"/>
<path fill-rule="evenodd" clip-rule="evenodd" d="M9.22864 0.162522C9.26614 0.159396 9.30678 0.159393 9.34428 0.159393L20.1367 0.159393C20.1742 0.159393 20.2117 0.159396 20.2524 0.162522C19.9867 0.571966 19.5241 0.847013 18.999 0.847013L10.482 0.847013C9.96001 0.843888 9.49743 0.571966 9.22864 0.162522Z" fill="#AAB5FF"/>
<path fill-rule="evenodd" clip-rule="evenodd" d="M4.39659 54.3811C4.39034 53.0558 4.37783 53.2496 4.37158 51.9244V51.665L4.60287 51.7837C11.3634 55.2312 18.1177 55.2312 24.8813 51.7837L25.1126 51.665V51.9244C25.1063 53.2496 25.097 53.0558 25.0876 54.3779C25.0876 54.6405 25.0344 54.8968 24.9469 55.1437C24.4531 56.5314 22.7403 57.3972 21.4401 57.866C19.3554 58.613 16.9581 58.8943 14.7515 58.8974C12.548 58.9006 10.1569 58.6318 8.07221 57.8942C6.76261 57.4316 5.05295 56.5721 4.54661 55.1843C4.45285 54.928 4.40284 54.6561 4.39659 54.3811Z" fill="#AAB5FF"/>
<path fill-rule="evenodd" clip-rule="evenodd" d="M4.55598 54.3779C4.56223 54.6373 4.60599 54.8874 4.69663 55.1312C5.18421 56.4689 6.87825 57.3034 8.12846 57.7472C10.1819 58.4755 12.5823 58.7443 14.7546 58.7412C16.9299 58.738 19.3335 58.4567 21.3869 57.716C22.6278 57.269 24.3249 56.4283 24.8 55.0905C24.8813 54.8593 24.9282 54.6186 24.9313 54.3748C24.9407 52.8527 24.9469 53.4434 24.9563 51.9213C18.1489 55.3937 11.3446 55.3937 4.53723 51.9213C4.54036 53.4465 4.54661 52.8558 4.55598 54.3779Z" fill="#AAB5FF"/>
<path fill-rule="evenodd" clip-rule="evenodd" d="M6.89073 23.6603C6.44378 20.9067 4.94665 19.2002 4.4997 16.4466C4.42469 15.9809 4.69974 15.5339 5.15294 15.3933C11.554 13.4086 17.9582 13.2898 24.3499 15.3901C24.7938 15.537 25.0625 15.9777 24.9875 16.4403C24.5406 19.197 23.0435 20.9036 22.5965 23.6603C22.5559 23.9135 22.4215 24.1291 22.2121 24.2791C22.0027 24.4292 21.7557 24.4854 21.5026 24.4417C16.3111 23.5415 13.1793 23.5415 7.98779 24.4417C7.73462 24.4854 7.48771 24.4292 7.2783 24.2791C7.06576 24.126 6.93136 23.9135 6.89073 23.6603Z" fill="#AAB5FF"/>
<path fill-rule="evenodd" clip-rule="evenodd" d="M25.172 16.0027L24.9782 15.9308C17.8113 13.2897 11.6759 13.2897 4.50909 15.9308L4.31531 16.0027L3.61519 6.21042C3.54955 4.69454 7.48459 1.20645 9.35678 1.20645L20.1524 1.20645C22.1214 1.41586 25.9502 4.54451 25.8752 6.2073L25.172 16.0027Z" fill="#AAB5FF"/>
<path fill-rule="evenodd" clip-rule="evenodd" d="M4.45284 15.7808C11.6634 13.1241 17.8238 13.1241 25.0313 15.7808L25.7158 6.20108C25.7502 4.60081 22.0308 1.56592 20.1336 1.36276C16.5393 1.36276 12.948 1.36276 9.35367 1.36276C7.45647 1.56592 3.7371 4.60081 3.77148 6.20108L4.45284 15.7808Z" fill="#AAB5FF"/>
<path fill-rule="evenodd" clip-rule="evenodd" d="M7.30338 23.5915C6.85643 20.8379 5.3593 19.1313 4.91235 16.3778C4.8686 16.1183 5.02487 15.8714 5.27491 15.7933C11.5885 13.8367 17.902 13.7117 24.2156 15.787C24.4625 15.8683 24.6126 16.1121 24.5688 16.3684C24.1218 19.1251 22.6247 20.8347 22.1746 23.5915C22.1528 23.7352 22.0809 23.8509 21.9621 23.9353C21.8433 24.0197 21.7121 24.0509 21.5683 24.0259C16.3143 23.1133 13.1606 23.1133 7.90973 24.0259C7.76596 24.0509 7.63469 24.0197 7.51592 23.9353C7.40027 23.8509 7.32839 23.7352 7.30338 23.5915Z" fill="#F2F2F2"/>
<path fill-rule="evenodd" clip-rule="evenodd" d="M7.30333 23.5915C6.85638 20.8379 5.35925 19.1314 4.9123 16.3778C4.89042 16.2371 4.9248 16.0996 5.00294 15.9902C11.2352 14.1024 17.4675 14.0118 23.703 16.059C23.9499 16.1402 24.0999 16.384 24.0562 16.6435C23.6092 19.4002 22.1121 21.1067 21.6651 23.8634C21.6557 23.9228 21.637 23.9791 21.6089 24.0291C21.5964 24.0291 21.5839 24.026 21.5714 24.0228C16.3173 23.1102 13.1637 23.1102 7.9128 24.0228C7.76903 24.0478 7.63776 24.0166 7.51899 23.9322C7.40022 23.8509 7.32833 23.7353 7.30333 23.5915Z" fill="#F2F2F2"/>
<path fill-rule="evenodd" clip-rule="evenodd" d="M23.7124 51.3368C20.915 55.0249 8.54732 55.0249 5.74997 51.3368C5.153 50.7554 5.38741 49.1426 5.54056 48.4363C5.69059 47.7393 5.98438 46.8048 6.48134 46.2797L6.85953 45.8765C8.74423 48.4769 20.7275 48.4863 22.5966 45.8734L22.9779 46.2797C23.9187 47.2736 24.5406 50.5273 23.7124 51.3368Z" fill="#F2F2F2"/>
<path fill-rule="evenodd" clip-rule="evenodd" d="M6.7845 46.5641C5.89997 47.5049 5.45615 50.546 6.05938 51.0523C8.64106 54.5529 20.8119 54.5529 23.3967 51.0523C23.9999 50.546 23.5561 47.5049 22.6716 46.5641C21.2338 48.9801 8.22537 48.9457 6.7845 46.5641Z" fill="#F2F2F2"/>
<path fill-rule="evenodd" clip-rule="evenodd" d="M4.34662 33.9308C4.10283 33.9402 3.89967 34.0277 3.78403 34.2433L3.73089 34.3402L3.73402 34.4496C3.80278 37.6408 3.88092 40.8288 3.9528 44.0168L3.95593 44.2231L4.12471 44.345C4.30599 44.4763 4.51227 44.5169 4.72793 44.5076C4.44351 44.6763 4.19034 44.8857 4.03094 45.1733L3.97156 45.2796L4.17784 48.777C6.35008 47.3018 6.18756 44.7857 6.18756 43.7074C6.18756 40.7257 6.18756 37.7439 6.18756 34.759V33.9464C6.18756 32.043 6.18756 30.1395 6.18756 28.2392V28.2298V28.2204C6.1188 26.4889 5.95939 24.5261 5.44368 22.8633C5.17176 21.9881 4.78107 21.1442 4.12471 20.491L3.38708 19.7628L3.40896 20.8004C3.4996 24.9043 3.62775 29.0081 3.71526 33.1119V33.1306L3.71839 33.1494C3.7559 33.5338 4.01532 33.7682 4.34662 33.9308Z" fill="#AAB5FF"/>
<path fill-rule="evenodd" clip-rule="evenodd" d="M4.36845 44.0106C4.29656 40.6726 4.22467 37.7814 4.14966 34.4434C4.30906 34.1465 5.37487 34.6153 5.76243 34.7684C5.76243 37.7502 5.76243 40.7319 5.76243 43.7168C5.36862 43.9075 4.69975 44.2513 4.36845 44.0106Z" fill="#F2F2F2"/>
<path fill-rule="evenodd" clip-rule="evenodd" d="M4.54977 48.0144L4.39349 45.3827C4.64666 44.9232 5.37491 44.6513 5.7656 44.4606C5.7281 45.939 5.62495 46.8954 4.54977 48.0144Z" fill="#F2F2F2"/>
<path fill-rule="evenodd" clip-rule="evenodd" d="M4.13406 33.1087C4.03092 28.386 3.92778 25.5199 3.82776 20.7972C4.6779 21.638 5.56868 23.3352 5.76559 28.2423C5.76559 30.1457 5.76559 32.0491 5.76559 33.9495C5.29051 33.7869 4.19032 33.64 4.13406 33.1087Z" fill="#F2F2F2"/>
<path fill-rule="evenodd" clip-rule="evenodd" d="M25.1376 33.9308C25.3814 33.9402 25.5845 34.0277 25.7002 34.2433L25.7502 34.3402L25.7471 34.4496C25.6783 37.6408 25.6002 40.8288 25.5283 44.0168L25.5251 44.2231L25.3564 44.345C25.1782 44.4763 24.9688 44.5169 24.7531 44.5076C25.0376 44.6763 25.2907 44.8857 25.4532 45.1733L25.5126 45.2796L25.3063 48.777C23.1341 47.3018 23.2966 44.7857 23.2966 43.7074C23.2966 40.7257 23.2966 37.7439 23.2966 34.759V33.9464C23.2966 32.043 23.2966 30.1395 23.2966 28.2392V28.2298V28.2204C23.3654 26.4889 23.5248 24.5261 24.0405 22.8633C24.3124 21.9881 24.7 21.1442 25.3595 20.491L26.0971 19.7628L26.0752 20.8004C25.9846 24.9043 25.8564 29.0081 25.7689 33.1119V33.1306L25.7658 33.1494C25.7252 33.5338 25.4658 33.7682 25.1376 33.9308Z" fill="#AAB5FF"/>
<path fill-rule="evenodd" clip-rule="evenodd" d="M25.1126 44.0106C25.1845 40.6725 25.2564 37.7814 25.3314 34.4433C25.172 34.1464 24.1093 34.6152 23.7186 34.7684C23.7186 37.7501 23.7186 40.7319 23.7186 43.7168C24.1156 43.9074 24.7844 44.2512 25.1126 44.0106Z" fill="#F2F2F2"/>
<path fill-rule="evenodd" clip-rule="evenodd" d="M24.9313 48.0144L25.0876 45.3827C24.8344 44.9232 24.1061 44.6513 23.7155 44.4606C23.753 45.939 23.8561 46.8954 24.9313 48.0144Z" fill="#F2F2F2"/>
<path fill-rule="evenodd" clip-rule="evenodd" d="M25.347 33.1087C25.4501 28.386 25.5533 25.5199 25.6533 20.7972C24.8031 21.638 23.9124 23.3352 23.7155 28.2423C23.7155 30.1457 23.7155 32.0491 23.7155 33.9495C24.1937 33.7869 25.2907 33.64 25.347 33.1087Z" fill="#F2F2F2"/>
<path fill-rule="evenodd" clip-rule="evenodd" d="M3.48394 32.4023C3.48081 32.1961 3.43393 31.324 3.62146 31.324H3.79337L3.82462 32.9774C3.59333 32.9993 3.48706 32.6774 3.48394 32.4023Z" fill="#AAB5FF"/>
<path fill-rule="evenodd" clip-rule="evenodd" d="M3.78083 32.8993C3.58392 32.9181 3.53391 32.5493 3.53391 32.4055C3.53079 32.1992 3.50266 31.3897 3.62455 31.3897C3.65581 31.3897 3.67769 31.3897 3.74957 31.3897C3.75895 31.8992 3.76833 32.3899 3.78083 32.8993Z" fill="#F2F2F2"/>
<path fill-rule="evenodd" clip-rule="evenodd" d="M3.69958 43.3635C3.69645 43.1572 3.64957 42.2852 3.8371 42.2852H4.009L4.04026 43.9386C3.80897 43.9574 3.7027 43.6354 3.69958 43.3635Z" fill="#AAB5FF"/>
<path fill-rule="evenodd" clip-rule="evenodd" d="M3.99342 43.8574C3.79963 43.8762 3.7465 43.5073 3.7465 43.3636C3.74337 43.1573 3.71525 42.3478 3.84027 42.3478C3.8684 42.3478 3.8934 42.3478 3.96529 42.3478C3.97466 42.8572 3.98404 43.3479 3.99342 43.8574Z" fill="#F2F2F2"/>
<path fill-rule="evenodd" clip-rule="evenodd" d="M26.0002 32.4023C26.0034 32.1961 26.0502 31.324 25.8627 31.324H25.6908L25.6595 32.9774C25.8908 32.9993 25.9971 32.6774 26.0002 32.4023Z" fill="#AAB5FF"/>
<path fill-rule="evenodd" clip-rule="evenodd" d="M25.7065 32.8993C25.9003 32.9181 25.9503 32.5493 25.9534 32.4055C25.9565 32.1992 25.9847 31.3897 25.8628 31.3897C25.8346 31.3897 25.8096 31.3897 25.7377 31.3897C25.7252 31.8992 25.7159 32.3899 25.7065 32.8993Z" fill="#F2F2F2"/>
<path fill-rule="evenodd" clip-rule="evenodd" d="M25.7846 43.3635C25.7877 43.1572 25.8346 42.2852 25.6471 42.2852H25.4752L25.4439 43.9386C25.6752 43.9574 25.7815 43.6354 25.7846 43.3635Z" fill="#AAB5FF"/>
<path fill-rule="evenodd" clip-rule="evenodd" d="M25.4907 43.8574C25.6876 43.8762 25.7376 43.5073 25.7376 43.3636C25.7408 43.1573 25.7689 42.3478 25.647 42.3478C25.6189 42.3478 25.5939 42.3478 25.522 42.3478C25.5095 42.8572 25.5001 43.3479 25.4907 43.8574Z" fill="#F2F2F2"/>
<path fill-rule="evenodd" clip-rule="evenodd" d="M6.68452 45.4983C6.57825 37.3688 6.7314 30.1519 6.43135 25.6887C6.38759 25.0355 6.86892 24.4666 7.54404 24.3666C12.3136 23.6759 17.1675 23.6759 21.9371 24.3666C22.6122 24.4635 23.0935 25.0355 23.0498 25.6887C22.7497 30.1551 22.9029 37.3719 22.7966 45.4983C22.8247 48.7488 6.65639 48.7488 6.68452 45.4983Z" fill="#AAB5FF"/>
<path fill-rule="evenodd" clip-rule="evenodd" d="M9.07867 4.0976C9.3506 5.35093 9.60376 6.81055 9.8038 8.37331C10.0038 9.93295 10.1257 11.3957 10.1757 12.649C9.90381 11.3957 9.65064 9.93608 9.45061 8.37331C9.25058 6.81368 9.12868 5.35093 9.07867 4.0976ZM20.4025 4.0976C20.1305 5.35093 19.8774 6.81055 19.6773 8.37331C19.4773 9.93295 19.3554 11.3957 19.3054 12.649C19.5773 11.3957 19.8305 9.93608 20.0305 8.37331C20.2306 6.81368 20.3525 5.35093 20.4025 4.0976Z" fill="#AAB5FF"/>
<path fill-rule="evenodd" clip-rule="evenodd" d="M20.5087 33.015C20.3274 34.6996 20.2087 36.6656 20.1837 38.7659C20.1587 40.8663 20.2274 42.8291 20.3649 44.5169C20.5462 42.8322 20.665 40.8663 20.69 38.7659C20.7181 36.6687 20.6494 34.7027 20.5087 33.015ZM8.9724 33.015C9.15368 34.6996 9.27245 36.6656 9.29745 38.7659C9.32246 40.8663 9.25369 42.8291 9.11617 44.5169C8.93489 42.8322 8.81612 40.8663 8.79112 38.7659C8.76299 36.6687 8.83175 34.7027 8.9724 33.015Z" fill="#AAB5FF"/>
<path fill-rule="evenodd" clip-rule="evenodd" d="M0.0989946 20.9098C-0.0135244 20.5816 -0.0604067 20.2222 0.123999 19.9128C0.352163 19.5283 0.867875 19.3408 1.27419 19.2189C1.82116 19.0501 2.38376 18.9376 2.9276 18.7532C3.12451 18.6844 3.31829 18.6094 3.50895 18.5188L3.64647 18.4531L3.6871 18.6C3.79962 19.0188 3.91214 19.4345 4.02153 19.8534L4.05279 19.9753L3.93089 20.0065C2.70256 20.3347 1.47735 20.6629 0.24902 20.9942L0.136502 21.0254L0.0989946 20.9098Z" fill="#AAB5FF"/>
<path fill-rule="evenodd" clip-rule="evenodd" d="M0.217731 20.8661C-0.363617 19.2001 1.92114 19.4189 3.56517 18.6282C3.67769 19.0439 3.79021 19.4627 3.8996 19.8815C2.67127 20.2097 1.44294 20.5379 0.217731 20.8661Z" fill="#AAB5FF"/>
<path d="M3.30269 18.5777L2.79852 18.7129L3.19665 20.1982L3.70081 20.063L3.30269 18.5777Z" fill="#AAB5FF"/>
<path d="M3.20875 18.7355L2.9491 18.805L3.2821 20.0489L3.54175 19.9794L3.20875 18.7355Z" fill="#AAB5FF"/>
<path fill-rule="evenodd" clip-rule="evenodd" d="M29.3851 20.9098C29.4976 20.5816 29.5445 20.2222 29.3601 19.9128C29.132 19.5283 28.6162 19.3408 28.2099 19.2189C27.663 19.0501 27.1004 18.9376 26.5565 18.7532C26.3596 18.6844 26.1658 18.6094 25.9752 18.5188L25.8377 18.4531L25.797 18.6C25.6845 19.0188 25.5751 19.4345 25.4626 19.8534L25.4313 19.9753L25.5532 20.0065C26.7816 20.3347 28.0068 20.6629 29.2351 20.9942L29.3476 21.0254L29.3851 20.9098Z" fill="#AAB5FF"/>
<path fill-rule="evenodd" clip-rule="evenodd" d="M29.2664 20.8661C29.8446 19.2001 27.563 19.4189 25.919 18.6282C25.8064 19.0439 25.6939 19.4627 25.5845 19.8815C26.8097 20.2097 28.0381 20.5379 29.2664 20.8661Z" fill="#AAB5FF"/>
<path fill-rule="evenodd" clip-rule="evenodd" d="M26.2909 20.2003L26.6879 18.7157L26.1847 18.5813L25.7877 20.0659L26.2909 20.2003Z" fill="#AAB5FF"/>
<path fill-rule="evenodd" clip-rule="evenodd" d="M26.2003 20.0472L26.5347 18.8032L26.2753 18.7344L25.9409 19.9753L26.2003 20.0472Z" fill="#F2F2F2"/>
<path fill-rule="evenodd" clip-rule="evenodd" d="M10.7446 25.0292H18.7959C19.8868 25.0292 20.7775 25.92 20.7775 27.0108V30.0144C20.7775 31.1052 19.8868 31.996 18.7959 31.996H10.7446C9.65377 31.996 8.763 31.1052 8.763 30.0144V27.0108C8.763 25.92 9.65377 25.0292 10.7446 25.0292Z" fill="#AAB5FF"/>
<path fill-rule="evenodd" clip-rule="evenodd" d="M10.7445 25.4481H18.7959C19.6554 25.4481 20.3586 26.1513 20.3586 27.0108V30.0145C20.3586 30.874 19.6554 31.5772 18.7959 31.5772H10.7445C9.88501 31.5772 9.18176 30.874 9.18176 30.0145V27.0108C9.18176 26.1513 9.88501 25.4481 10.7445 25.4481Z" fill="#F2F2F2"/>
<path fill-rule="evenodd" clip-rule="evenodd" d="M21.7527 0.690753C22.534 0.887661 23.3436 1.39711 23.9812 1.8847C24.6438 2.39103 26.0096 3.61624 26.2315 4.44763L26.3409 4.85708L25.6221 4.36637L25.6033 4.33512C25.4783 4.10696 25.1564 3.78502 24.972 3.59749C24.6063 3.22868 24.2156 2.87549 23.8124 2.54106C23.3498 2.15662 22.8028 1.73468 22.2653 1.45963L22.2528 1.45338L21.0088 0.506348L21.7527 0.690753Z" fill="#AAB5FF"/>
<path fill-rule="evenodd" clip-rule="evenodd" d="M21.712 0.843903L22.334 1.31586C23.5405 1.93471 25.447 3.72877 25.7377 4.25385L26.0753 4.48514C25.8252 3.54436 23.4623 1.2846 21.712 0.843903Z" fill="#F2F2F2"/>
<path fill-rule="evenodd" clip-rule="evenodd" d="M8.44416 0.534454L7.34398 1.51586L7.32522 1.52524C6.78763 1.80029 6.24066 2.22224 5.77809 2.60668C5.37802 2.93799 4.98733 3.29116 4.61852 3.6631C4.43411 3.85063 4.11218 4.17257 3.98716 4.40073L3.96215 4.44448L3.25891 4.76954L3.34643 4.44448C3.56834 3.61622 4.93107 2.39102 5.59681 1.88156C6.23129 1.3971 7.04393 0.887636 7.82531 0.687602L8.44416 0.534454Z" fill="#AAB5FF"/>
<path fill-rule="evenodd" clip-rule="evenodd" d="M7.8597 0.843903L7.25334 1.38462C6.04689 2.00348 4.14032 3.79753 3.84964 4.32262L3.49646 4.48514C3.7465 3.54436 6.1094 1.2846 7.8597 0.843903Z" fill="#F2F2F2"/>
</svg>
