<svg width="62" height="29" viewBox="0 0 62 29" fill="none" xmlns="http://www.w3.org/2000/svg">
<path d="M45.6482 4.24969L53.8902 4.24969C54.407 4.24969 54.8247 3.83206 54.8247 3.31525V2.4526C54.8247 1.93345 54.4015 1.51815 53.8902 1.51815L45.6482 1.51815C45.129 1.51815 44.7137 1.94127 44.7137 2.4526V3.31525C44.7137 3.83205 45.1314 4.24969 45.6482 4.24969Z" stroke="#A8ADE0"/>
<path d="M45.6482 4.09338L53.8902 4.09338C54.3154 4.09338 54.6706 3.74758 54.6652 3.31134V2.45256C54.6652 2.03009 54.3231 1.67752 53.8902 1.67752L45.6482 1.67752C45.2257 1.67752 44.8731 2.01957 44.8731 2.45256V3.31521C44.8731 3.73712 45.2115 4.09338 45.6482 4.09338Z" stroke="#A8ADE0"/>
<path d="M45.6482 26.966H53.8902C54.4047 26.966 54.8247 26.5507 54.8247 26.0347V25.1689C54.8247 24.6498 54.4015 24.2345 53.8902 24.2345H45.6482C45.129 24.2345 44.7137 24.6576 44.7137 25.1689V26.0316C44.7137 26.5484 45.1314 26.966 45.6482 26.966Z" stroke="#A8ADE0"/>
<path d="M45.6482 26.8098H53.8902C54.3115 26.8098 54.6707 26.4677 54.6652 26.0308V25.1721C54.6652 24.7496 54.3231 24.397 53.8902 24.397H45.6482C45.2257 24.397 44.8731 24.7391 44.8731 25.1721V26.0347C44.8731 26.4572 45.2152 26.8098 45.6482 26.8098Z" stroke="#A8ADE0"/>
<path d="M10.9267 3.58081L19.1687 3.58081C19.6855 3.58081 20.1032 3.16318 20.1032 2.64636V1.78059C20.1032 1.26144 19.68 0.846142 19.1687 0.846142L10.9267 0.846142C10.4075 0.846142 9.99225 1.26926 9.99225 1.78059V2.64636C9.99225 3.1655 10.4153 3.58081 10.9267 3.58081Z" stroke="#A8ADE0"/>
<path d="M10.9267 27.6349H19.1687C19.6855 27.6349 20.1032 27.2173 20.1032 26.7004V25.8378C20.1032 25.3186 19.68 24.9033 19.1687 24.9033H10.9267C10.4075 24.9033 9.99225 25.3265 9.99225 25.8378V26.7004C9.99225 27.2196 10.4153 27.6349 10.9267 27.6349Z" stroke="#A8ADE0"/>
<path d="M10.9267 27.4786H19.1687C19.59 27.4786 19.9492 27.1366 19.9437 26.6996V25.8409C19.9437 25.4184 19.6017 25.0658 19.1687 25.0658H10.9267C10.5042 25.0658 10.1516 25.4079 10.1516 25.8409V26.7035C10.1516 27.126 10.4937 27.4786 10.9267 27.4786Z" stroke="#A8ADE0"/>
<path d="M6.6175 1.40883L6.61796 1.40884L55.4104 2.45901L6.6175 1.40883ZM6.6175 1.40883C5.91149 1.39427 5.18072 1.7791 4.5296 2.28337C3.86132 2.80093 3.19743 3.50654 2.61144 4.2684C2.02437 5.03164 1.50322 5.86729 1.12656 6.65537C0.756659 7.42932 0.5 8.21089 0.5 8.85052L0.5 19.643C0.5 20.2819 0.75672 21.0631 1.12659 21.8368M6.6175 1.40883L1.12659 21.8368M6.61824 27.0815L55.409 26.0314L6.61824 27.0815ZM6.61824 27.0815C6.61814 27.0815 6.61805 27.0815 6.61796 27.0815M6.61824 27.0815L6.61796 27.0815M1.12659 21.8368C1.50324 22.6246 2.02437 23.4603 2.61144 24.2235M1.12659 21.8368L2.61144 24.2235M2.61144 24.2235C3.19743 24.9854 3.86134 25.691 4.52968 26.2084M2.61144 24.2235L4.52968 26.2084M4.52968 26.2084C5.18073 26.7124 5.91167 27.097 6.61796 27.0815M4.52968 26.2084L6.61796 27.0815" stroke="#A8ADE0"/>
<path d="M6.61476 26.9221L6.61487 26.9221L55.4058 25.872C55.4061 25.872 55.4064 25.872 55.4067 25.872C57.481 25.834 58.9279 24.1943 59.8327 22.0563C60.7474 19.895 61.1901 17.0594 61.1863 14.2512C61.1825 11.4428 60.7322 8.60642 59.8159 6.4431C58.9101 4.30452 57.4678 2.65932 55.4074 2.61531L6.61487 1.56513L6.61476 1.56513C5.92249 1.55038 5.2088 1.93553 4.57734 2.43256C3.92776 2.94384 3.28217 3.63968 2.71237 4.38793C2.14146 5.13764 1.63433 5.95615 1.26764 6.72331C0.908281 7.47515 0.656311 8.2339 0.656311 8.84741L0.656311 19.6399C0.656311 20.2534 0.908281 21.0121 1.26764 21.764C1.63433 22.5311 2.14146 23.3496 2.71237 24.0993C3.28217 24.8476 3.92776 25.5434 4.57734 26.0547C5.2088 26.5517 5.92249 26.9369 6.61476 26.9221Z" stroke="#A8ADE0"/>
<path d="M17.5267 24.978L17.5261 24.9781C16.8155 25.0925 16.1305 24.6712 15.9158 23.9794L15.9157 23.9793C13.903 17.488 13.7796 10.9771 15.9152 4.47811L15.9155 4.47709C16.1393 3.80099 16.8144 3.38857 17.5204 3.50304C18.9608 3.73659 20.1253 4.24381 21.2317 4.72573L21.25 4.73371C22.3696 5.22136 23.4316 5.68177 24.7396 5.89394L17.5267 24.978ZM17.5267 24.978C18.9657 24.7444 20.1294 24.2372 21.2349 23.7553L21.2532 23.7473C22.3722 23.2596 23.4335 22.7991 24.74 22.587C25.1298 22.5243 25.4574 22.3138 25.6848 21.9981L25.6856 21.997C25.9138 21.6786 26.0009 21.296 25.9344 20.9112L25.9344 20.9109C25.044 15.7759 25.044 12.702 25.9344 7.56698L25.9344 7.56672M17.5267 24.978L25.9344 7.56672M25.9344 7.56672C26.0009 7.18188 25.9138 6.79935 25.6856 6.48087C25.459 6.16446 25.1264 5.95624 24.7403 5.89407L25.9344 7.56672Z" stroke="#A8ADE0"/>
</svg>
