<svg width="29" height="63" viewBox="0 0 29 63" fill="none" xmlns="http://www.w3.org/2000/svg">
<path d="M4.37207 16.3794L4.37207 8.13739C4.37207 7.62058 3.95444 7.20293 3.43762 7.20293H2.57497C2.05582 7.20293 1.64053 7.62605 1.64053 8.13739L1.64053 16.3794C1.64053 16.8986 2.06364 17.3138 2.57497 17.3138H3.43762C3.95442 17.3138 4.37207 16.8962 4.37207 16.3794Z" stroke="#A8ADE0"/>
<path d="M4.21576 16.3794L4.21576 8.13742C4.21576 7.71222 3.86996 7.35694 3.43371 7.36237H2.57494C2.15246 7.36237 1.7999 7.70445 1.7999 8.13742L1.7999 16.3794C1.7999 16.8019 2.14194 17.1545 2.57494 17.1545H3.43759C3.85949 17.1545 4.21576 16.8161 4.21576 16.3794Z" stroke="#A8ADE0"/>
<path d="M27.0884 16.3794V8.13739C27.0884 7.62294 26.6731 7.20293 26.1571 7.20293H25.2913C24.7721 7.20293 24.3568 7.62605 24.3568 8.13739V16.3794C24.3568 16.8986 24.78 17.3138 25.2913 17.3138H26.1539C26.6707 17.3138 27.0884 16.8962 27.0884 16.3794Z" stroke="#A8ADE0"/>
<path d="M26.9321 16.3794V8.13742C26.9321 7.71611 26.5901 7.35687 26.1532 7.36237H25.2944C24.872 7.36237 24.5194 7.70444 24.5194 8.13742V16.3794C24.5194 16.8019 24.8614 17.1545 25.2944 17.1545H26.1571C26.5795 17.1545 26.9321 16.8124 26.9321 16.3794Z" stroke="#A8ADE0"/>
<path d="M3.70319 51.1009L3.70319 42.8589C3.70319 42.3421 3.28555 41.9244 2.76874 41.9244H1.90297C1.38381 41.9244 0.968517 42.3475 0.968517 42.8589L0.968517 51.1009C0.968517 51.62 1.39163 52.0353 1.90297 52.0353H2.76874C3.28788 52.0353 3.70319 51.6122 3.70319 51.1009Z" stroke="#A8ADE0"/>
<path d="M27.7573 51.1009V42.8589C27.7573 42.3421 27.3396 41.9244 26.8228 41.9244H25.9602C25.441 41.9244 25.0257 42.3475 25.0257 42.8589V51.1009C25.0257 51.62 25.4488 52.0353 25.9602 52.0353H26.8228C27.342 52.0353 27.7573 51.6122 27.7573 51.1009Z" stroke="#A8ADE0"/>
<path d="M27.601 51.1009V42.8589C27.601 42.4376 27.2589 42.0784 26.822 42.0839H25.9633C25.5408 42.0839 25.1882 42.4259 25.1882 42.8589V51.1009C25.1882 51.5234 25.5303 51.876 25.9633 51.876H26.8259C27.2484 51.876 27.601 51.5339 27.601 51.1009Z" stroke="#A8ADE0"/>
<path d="M1.53121 55.4101L1.53122 55.4096L2.58139 6.6172L1.53121 55.4101ZM1.53121 55.4101C1.51665 56.1161 1.90147 56.8469 2.40574 57.498C2.92331 58.1663 3.62892 58.8302 4.39077 59.4162C5.15401 60.0032 5.98967 60.5244 6.77775 60.901C7.55169 61.2709 8.33327 61.5276 8.9729 61.5276H19.7653C20.4043 61.5276 21.1855 61.2709 21.9592 60.901M1.53121 55.4101L21.9592 60.901M27.2039 55.4093L26.1537 6.61857L27.2039 55.4093ZM27.2039 55.4093C27.2039 55.4094 27.2039 55.4095 27.2039 55.4096M27.2039 55.4093L27.2039 55.4096M21.9592 60.901C22.747 60.5244 23.5827 60.0032 24.3459 59.4162M21.9592 60.901L24.3459 59.4162M24.3459 59.4162C25.1077 58.8302 25.8134 58.1662 26.3308 57.4979M24.3459 59.4162L26.3308 57.4979M26.3308 57.4979C26.8348 56.8469 27.2194 56.1159 27.2039 55.4096M26.3308 57.4979L27.2039 55.4096" stroke="#A8ADE0"/>
<path d="M27.0445 55.4128L27.0445 55.4127L25.9944 6.62183C25.9944 6.62153 25.9944 6.62123 25.9944 6.62093C25.9564 4.54654 24.3166 3.0997 22.1787 2.19489C20.0174 1.28016 17.1817 0.837536 14.3735 0.841305C11.5652 0.845078 8.7288 1.29535 6.56547 2.21164C4.4269 3.11745 2.7817 4.55976 2.73768 6.62019L1.68751 55.4127L1.68751 55.4128C1.67275 56.1051 2.0579 56.8188 2.55493 57.4503C3.06622 58.0998 3.76205 58.7454 4.5103 59.3152C5.26002 59.8861 6.07853 60.3933 6.84569 60.7599C7.59753 61.1193 8.35628 61.3713 8.96979 61.3713H19.7622C20.3757 61.3713 21.1345 61.1193 21.8863 60.7599C22.6535 60.3933 23.472 59.8861 24.2217 59.3152C24.97 58.7454 25.6658 58.0998 26.1771 57.4503C26.6741 56.8188 27.0593 56.1051 27.0445 55.4128Z" stroke="#A8ADE0"/>
<path d="M25.1003 44.5009L25.1004 44.5015C25.2149 45.2121 24.7936 45.8971 24.1018 46.1118L24.1016 46.1119C17.6104 48.1245 11.0994 48.248 4.60049 46.1124L4.59947 46.1121C3.92336 45.8883 3.51094 45.2131 3.62542 44.5072C3.85896 43.0667 4.36619 41.9023 4.8481 40.7959L4.85608 40.7776C5.34374 39.658 5.80415 38.596 6.01632 37.288L25.1003 44.5009ZM25.1003 44.5009C24.8668 43.0619 24.3595 41.8982 23.8776 40.7927L23.8696 40.7743C23.3819 39.6554 22.9215 38.5941 22.7094 37.2876C22.6467 36.8978 22.4361 36.5702 22.1205 36.3428L22.1194 36.342C21.8009 36.1138 21.4184 36.0267 21.0336 36.0932L21.0333 36.0932C15.8983 36.9836 12.8243 36.9836 7.68935 36.0932L7.68909 36.0932M25.1003 44.5009L7.68909 36.0932M7.68909 36.0932C7.30425 36.0267 6.92172 36.1138 6.60325 36.342C6.28684 36.5686 6.07862 36.9012 6.01645 37.2872L7.68909 36.0932Z" stroke="#A8ADE0"/>
</svg>
