<svg width="61" height="30" viewBox="0 0 61 30" fill="none" xmlns="http://www.w3.org/2000/svg">
<path fill-rule="evenodd" clip-rule="evenodd" d="M53.7091 4.43079L45.467 4.43079C45.2264 4.43079 45.0326 4.237 45.0326 3.99634V3.13369C45.0326 2.89615 45.2264 2.69924 45.467 2.69924L53.7091 2.69924C53.9466 2.69924 54.1435 2.89302 54.1435 3.13369V3.99634C54.1435 4.237 53.9497 4.43079 53.7091 4.43079Z" fill="#AAB5FF"/>
<path fill-rule="evenodd" clip-rule="evenodd" d="M53.709 4.27451L45.467 4.27451C45.3139 4.27451 45.192 4.14948 45.192 3.99633V3.13369C45.192 2.98053 45.317 2.85864 45.467 2.85864L53.709 2.85864C53.8622 2.85864 53.9841 2.98366 53.9841 3.13369V3.99633C53.9872 4.14948 53.8622 4.27451 53.709 4.27451Z" fill="#F2F2F2"/>
<path fill-rule="evenodd" clip-rule="evenodd" d="M53.7091 27.1471H45.467C45.2264 27.1471 45.0326 26.9533 45.0326 26.7126V25.85C45.0326 25.6125 45.2264 25.4156 45.467 25.4156H53.7091C53.9466 25.4156 54.1435 25.6093 54.1435 25.85V26.7158C54.1435 26.9533 53.9497 27.1471 53.7091 27.1471Z" fill="#AAB5FF"/>
<path fill-rule="evenodd" clip-rule="evenodd" d="M53.709 26.9908H45.467C45.3139 26.9908 45.192 26.8658 45.192 26.7158V25.8532C45.192 25.7 45.317 25.5781 45.467 25.5781H53.709C53.8622 25.5781 53.9841 25.7031 53.9841 25.8532V26.7158C53.9872 26.8658 53.8622 26.9908 53.709 26.9908Z" fill="#F2F2F2"/>
<path fill-rule="evenodd" clip-rule="evenodd" d="M18.9876 3.7619L10.7455 3.7619C10.508 3.7619 10.3111 3.56812 10.3111 3.32745V2.46168C10.3111 2.22414 10.5049 2.02723 10.7455 2.02723L18.9876 2.02723C19.2251 2.02723 19.422 2.22102 19.422 2.46168V3.32745C19.422 3.56812 19.2282 3.7619 18.9876 3.7619Z" fill="#AAB5FF"/>
<path fill-rule="evenodd" clip-rule="evenodd" d="M18.9875 3.60565L10.7455 3.60565C10.5924 3.60565 10.4705 3.48063 10.4705 3.3306V2.46483C10.4705 2.31168 10.5955 2.18979 10.7455 2.18979L18.9875 2.18979C19.1407 2.18979 19.2626 2.31481 19.2626 2.46483V3.3306C19.2657 3.48063 19.1407 3.60565 18.9875 3.60565Z" fill="#F2F2F2"/>
<path fill-rule="evenodd" clip-rule="evenodd" d="M18.9876 27.816H10.7455C10.508 27.816 10.3111 27.6222 10.3111 27.3815V26.5189C10.3111 26.2813 10.5049 26.0844 10.7455 26.0844H18.9876C19.2251 26.0844 19.422 26.2782 19.422 26.5189V27.3815C19.422 27.6222 19.2282 27.816 18.9876 27.816Z" fill="#AAB5FF"/>
<path fill-rule="evenodd" clip-rule="evenodd" d="M18.9875 27.6597H10.7455C10.5924 27.6597 10.4705 27.5347 10.4705 27.3847V26.522C10.4705 26.3689 10.5955 26.247 10.7455 26.247H18.9875C19.1407 26.247 19.2626 26.372 19.2626 26.522V27.3847C19.2657 27.5347 19.1407 27.6597 18.9875 27.6597Z" fill="#F2F2F2"/>
<path fill-rule="evenodd" clip-rule="evenodd" d="M55.2187 26.2126L6.42604 27.2628C4.30381 27.3097 0.818848 22.4276 0.818848 20.3241L0.818848 9.53167C0.818848 7.42507 4.30381 2.54612 6.42604 2.58988L55.2187 3.64005C62.4511 3.7932 62.5105 26.0782 55.2187 26.2126Z" fill="#AAB5FF"/>
<path fill-rule="evenodd" clip-rule="evenodd" d="M55.2156 26.0532L6.42296 27.1033C4.36949 27.1471 0.975159 22.3182 0.975159 20.3209L0.975159 9.5285C0.975159 7.53129 4.36949 2.70235 6.42296 2.74611L55.2156 3.79629C62.2386 3.94631 62.298 25.925 55.2156 26.0532Z" fill="#AAB5FF"/>
<path fill-rule="evenodd" clip-rule="evenodd" d="M0.981339 20.4366C0.978214 20.3991 0.97821 20.3585 0.97821 20.321L0.97821 9.52855C0.97821 9.49105 0.978214 9.45354 0.981339 9.41291C1.39078 9.67858 1.66583 10.1412 1.66583 10.6662L1.66583 19.1833C1.6627 19.7053 1.39078 20.1679 0.981339 20.4366Z" fill="#AAB5FF"/>
<path fill-rule="evenodd" clip-rule="evenodd" d="M55.1999 25.2687C53.8747 25.2749 54.0685 25.2875 52.7432 25.2937H52.4838L52.6026 25.0624C56.0501 18.3019 56.0501 11.5476 52.6026 4.78399L52.4838 4.5527H52.7432C54.0685 4.55895 53.8747 4.56833 55.1968 4.57771C55.4593 4.57771 55.7156 4.63084 55.9625 4.71835C57.3503 5.21219 58.216 6.92498 58.6849 8.2252C59.4319 10.3099 59.7132 12.7072 59.7163 14.9138C59.7194 17.1173 59.4506 19.5083 58.713 21.5931C58.2504 22.9027 57.3909 24.6123 56.0032 25.1187C55.7469 25.2124 55.475 25.2624 55.1999 25.2687Z" fill="#AAB5FF"/>
<path fill-rule="evenodd" clip-rule="evenodd" d="M55.1968 25.1093C55.4562 25.103 55.7062 25.0593 55.95 24.9687C57.2878 24.4811 58.1223 22.787 58.5661 21.5368C59.2943 19.4834 59.5631 17.0829 59.56 14.9107C59.5569 12.7353 59.2756 10.3318 58.5348 8.27834C58.0879 7.0375 57.2471 5.34034 55.9094 4.86526C55.6781 4.784 55.4374 4.73711 55.1936 4.73399C53.6715 4.72461 54.2622 4.71836 52.7401 4.70898C56.2126 11.5164 56.2126 18.3207 52.7401 25.1281C54.2654 25.1249 53.6746 25.1187 55.1968 25.1093Z" fill="#AAB5FF"/>
<path fill-rule="evenodd" clip-rule="evenodd" d="M24.4792 22.7746C21.7256 23.2215 20.019 24.7186 17.2655 25.1656C16.7998 25.2406 16.3528 24.9655 16.2121 24.5123C14.2274 18.1113 14.1087 11.7071 16.209 5.31536C16.3559 4.87153 16.7966 4.60273 17.2592 4.67775C20.0159 5.1247 21.7225 6.62183 24.4792 7.06878C24.7323 7.10941 24.948 7.24381 25.098 7.45322C25.2481 7.66263 25.3043 7.90954 25.2605 8.16271C24.3604 13.3542 24.3604 16.486 25.2605 21.6775C25.3043 21.9307 25.2481 22.1776 25.098 22.387C24.9449 22.5995 24.7323 22.7339 24.4792 22.7746Z" fill="#AAB5FF"/>
<path fill-rule="evenodd" clip-rule="evenodd" d="M16.8216 4.49333L16.7497 4.68711C14.1086 11.8539 14.1086 17.9894 16.7497 25.1562L16.8216 25.35L7.0293 26.0501C5.51342 26.1157 2.02533 22.1807 2.02533 20.3085L2.02533 9.51293C2.23474 7.54384 5.36339 3.71507 7.02617 3.79009L16.8216 4.49333Z" fill="#AAB5FF"/>
<path fill-rule="evenodd" clip-rule="evenodd" d="M16.5996 25.2124C13.9429 18.0018 13.9429 11.8414 16.5996 4.63397L7.0199 3.94948C5.41963 3.9151 2.38474 7.63447 2.18158 9.53167C2.18158 13.126 2.18158 16.7173 2.18158 20.3116C2.38474 22.2088 5.41963 25.9282 7.0199 25.8938L16.5996 25.2124Z" fill="#AAB5FF"/>
<path fill-rule="evenodd" clip-rule="evenodd" d="M24.4103 22.3619C21.6567 22.8089 19.9502 24.306 17.1966 24.7529C16.9372 24.7967 16.6903 24.6404 16.6121 24.3904C14.6555 18.0768 14.5305 11.7632 16.6059 5.44967C16.6871 5.20275 16.9309 5.05273 17.1872 5.09648C19.9439 5.54344 21.6536 7.04056 24.4103 7.49064C24.5541 7.51252 24.6697 7.58441 24.7541 7.70318C24.8385 7.82195 24.8698 7.95322 24.8448 8.09699C23.9321 13.351 23.9321 16.5047 24.8448 21.7555C24.8698 21.8993 24.8385 22.0306 24.7541 22.1494C24.6697 22.265 24.5541 22.3369 24.4103 22.3619Z" fill="#F2F2F2"/>
<path fill-rule="evenodd" clip-rule="evenodd" d="M24.4104 22.362C21.6568 22.8089 19.9502 24.306 17.1966 24.753C17.056 24.7749 16.9185 24.7405 16.8091 24.6623C14.9212 18.43 14.8306 12.1977 16.8778 5.96231C16.9591 5.7154 17.2029 5.56537 17.4623 5.60913C20.219 6.05608 21.9256 7.55321 24.6823 8.00016C24.7417 8.00954 24.7979 8.02829 24.8479 8.05642C24.8479 8.06892 24.8448 8.08142 24.8417 8.09392C23.929 13.3479 23.929 16.5016 24.8417 21.7525C24.8667 21.8963 24.8354 22.0275 24.751 22.1463C24.6698 22.2651 24.5541 22.337 24.4104 22.362Z" fill="#F2F2F2"/>
<path fill-rule="evenodd" clip-rule="evenodd" d="M52.1556 5.9529C55.8437 8.75025 55.8437 21.118 52.1556 23.9153C51.5743 24.5123 49.9615 24.2779 49.2551 24.1247C48.5581 23.9747 47.6236 23.6809 47.0985 23.1839L46.6953 22.8057C49.2958 20.9211 49.3051 8.93779 46.6922 7.06872L47.0985 6.68741C48.0924 5.74662 51.3461 5.12464 52.1556 5.9529Z" fill="#F2F2F2"/>
<path fill-rule="evenodd" clip-rule="evenodd" d="M47.3829 22.8808C48.3237 23.7653 51.3649 24.2091 51.8712 23.6059C55.3718 21.0242 55.3718 8.85341 51.8712 6.2686C51.3649 5.66538 48.3237 6.1092 47.3829 6.99373C49.799 8.43147 49.7646 21.4399 47.3829 22.8808Z" fill="#F2F2F2"/>
<path fill-rule="evenodd" clip-rule="evenodd" d="M34.7496 25.3187C34.759 25.5625 34.8465 25.7656 35.0622 25.8813L35.1591 25.9344L35.2685 25.9313C38.4596 25.8625 41.6477 25.7844 44.8357 25.7125L45.042 25.7094L45.1639 25.5406C45.2951 25.3593 45.3358 25.153 45.3264 24.9373C45.4952 25.2218 45.7046 25.4749 45.9921 25.6343L46.0984 25.6937L49.5959 25.4874C48.1206 23.3152 45.6046 23.4777 44.5263 23.4777C41.5445 23.4777 38.5628 23.4777 35.5779 23.4777H34.7652C32.8618 23.4777 30.9584 23.4777 29.058 23.4777H29.0487H29.0393C27.3077 23.5465 25.3449 23.7059 23.6821 24.2216C22.807 24.4935 21.9631 24.8842 21.3099 25.5406L20.5816 26.2782L21.6193 26.2563C25.7231 26.1657 29.8269 26.0375 33.9307 25.95H33.9495L33.9682 25.9469C34.3527 25.9094 34.5871 25.65 34.7496 25.3187Z" fill="#AAB5FF"/>
<path fill-rule="evenodd" clip-rule="evenodd" d="M44.8295 25.2968C41.4914 25.3687 38.6003 25.4406 35.2622 25.5156C34.9653 25.3562 35.4341 24.2904 35.5873 23.9029C38.569 23.9029 41.5508 23.9029 44.5357 23.9029C44.7263 24.2967 45.0701 24.9655 44.8295 25.2968Z" fill="#F2F2F2"/>
<path fill-rule="evenodd" clip-rule="evenodd" d="M48.8332 25.1155L46.2015 25.2718C45.7421 25.0186 45.4701 24.2904 45.2795 23.8997C46.7579 23.9372 47.7143 24.0403 48.8332 25.1155Z" fill="#F2F2F2"/>
<path fill-rule="evenodd" clip-rule="evenodd" d="M33.9275 25.5312C29.2049 25.6344 26.3388 25.7375 21.6161 25.8375C22.4569 24.9874 24.154 24.0966 29.0611 23.8997C30.9645 23.8997 32.868 23.8997 34.7683 23.8997C34.6058 24.3748 34.4589 25.475 33.9275 25.5312Z" fill="#F2F2F2"/>
<path fill-rule="evenodd" clip-rule="evenodd" d="M34.7496 4.52771C34.759 4.28392 34.8465 4.08076 35.0622 3.96511L35.1591 3.9151L35.2685 3.91823C38.4596 3.98699 41.6477 4.06513 44.8357 4.13702L45.042 4.14014L45.1639 4.30892C45.2951 4.48708 45.3358 4.69649 45.3264 4.91215C45.4952 4.62773 45.7046 4.37456 45.9921 4.21203L46.0984 4.15265L49.5959 4.35893C48.1206 6.53117 45.6046 6.36865 44.5263 6.36865C41.5445 6.36865 38.5628 6.36865 35.5779 6.36865L34.7652 6.36865C32.8618 6.36865 30.9584 6.36865 29.058 6.36865H29.0487H29.0393C27.3077 6.29988 25.3449 6.14048 23.6821 5.62477C22.807 5.35285 21.9631 4.96528 21.3099 4.3058L20.5816 3.56817L21.6193 3.59005C25.7231 3.68069 29.8269 3.80884 33.9307 3.89635H33.9495L33.9682 3.89948C34.3527 3.94011 34.5871 4.19953 34.7496 4.52771Z" fill="#AAB5FF"/>
<path fill-rule="evenodd" clip-rule="evenodd" d="M44.8294 4.55267C41.4913 4.48079 38.6002 4.4089 35.2622 4.33389C34.9652 4.49329 35.4341 5.55596 35.5872 5.94666C38.569 5.94666 41.5507 5.94666 44.5356 5.94666C44.7263 5.54971 45.0701 4.88085 44.8294 4.55267Z" fill="#F2F2F2"/>
<path fill-rule="evenodd" clip-rule="evenodd" d="M48.8332 4.734L46.2015 4.57772C45.7421 4.83089 45.4701 5.55914 45.2795 5.94983C46.7579 5.91232 47.7143 5.80918 48.8332 4.734Z" fill="#F2F2F2"/>
<path fill-rule="evenodd" clip-rule="evenodd" d="M33.9275 4.3183C29.2049 4.21516 26.3388 4.11202 21.6161 4.012C22.4569 4.86215 24.154 5.75292 29.0611 5.94983C30.9645 5.94983 32.868 5.94983 34.7683 5.94983C34.6058 5.47162 34.4589 4.37456 33.9275 4.3183Z" fill="#F2F2F2"/>
<path fill-rule="evenodd" clip-rule="evenodd" d="M33.2212 26.1813C33.0149 26.1845 32.1429 26.2314 32.1429 26.0438V25.8719L33.7963 25.8407C33.8182 26.072 33.4962 26.1782 33.2212 26.1813Z" fill="#AAB5FF"/>
<path fill-rule="evenodd" clip-rule="evenodd" d="M33.7182 25.8845C33.7369 26.0814 33.3681 26.1314 33.2244 26.1314C33.0181 26.1345 32.2086 26.1626 32.2086 26.0407C32.2086 26.0095 32.2086 25.9876 32.2086 25.9157C32.718 25.9063 33.2087 25.897 33.7182 25.8845Z" fill="#F2F2F2"/>
<path fill-rule="evenodd" clip-rule="evenodd" d="M44.1824 25.9657C43.9761 25.9688 43.1041 26.0157 43.1041 25.8282V25.6563L44.7575 25.625C44.7762 25.8563 44.4543 25.9626 44.1824 25.9657Z" fill="#AAB5FF"/>
<path fill-rule="evenodd" clip-rule="evenodd" d="M44.6763 25.6719C44.695 25.8656 44.3262 25.9188 44.1824 25.9188C43.9761 25.9219 43.1666 25.95 43.1666 25.825C43.1666 25.7969 43.1666 25.7719 43.1666 25.7C43.6761 25.6906 44.1668 25.6812 44.6763 25.6719Z" fill="#F2F2F2"/>
<path fill-rule="evenodd" clip-rule="evenodd" d="M33.2212 3.66506C33.0149 3.66193 32.1429 3.61504 32.1429 3.80258V3.97448L33.7963 4.00574C33.8182 3.77445 33.4962 3.66818 33.2212 3.66506Z" fill="#AAB5FF"/>
<path fill-rule="evenodd" clip-rule="evenodd" d="M33.7182 3.9588C33.7369 3.76502 33.3681 3.71501 33.2244 3.71189C33.0181 3.70876 32.2086 3.68063 32.2086 3.80252C32.2086 3.83065 32.2086 3.85566 32.2086 3.92755C32.718 3.94005 33.2087 3.94942 33.7182 3.9588Z" fill="#F2F2F2"/>
<path fill-rule="evenodd" clip-rule="evenodd" d="M44.1824 3.88069C43.9761 3.87756 43.1041 3.83068 43.1041 4.01821V4.19012L44.7575 4.22137C44.7762 3.99009 44.4543 3.88381 44.1824 3.88069Z" fill="#AAB5FF"/>
<path fill-rule="evenodd" clip-rule="evenodd" d="M44.6763 4.17453C44.695 3.97762 44.3262 3.92762 44.1824 3.92762C43.9761 3.92449 43.1666 3.89636 43.1666 4.01825C43.1666 4.04638 43.1666 4.07139 43.1666 4.14328C43.6761 4.15578 44.1668 4.16515 44.6763 4.17453Z" fill="#F2F2F2"/>
<path fill-rule="evenodd" clip-rule="evenodd" d="M46.3172 22.9808C38.1877 23.087 30.9708 22.9339 26.5076 23.2339C25.8543 23.2777 25.2855 22.7964 25.1855 22.1212C24.4947 17.3517 24.4947 12.4978 25.1855 7.7282C25.2824 7.05308 25.8543 6.57175 26.5076 6.6155C30.9739 6.91555 38.1908 6.76241 46.3172 6.86868C49.5677 6.84055 49.5677 23.0089 46.3172 22.9808Z" fill="#AAB5FF"/>
<path fill-rule="evenodd" clip-rule="evenodd" d="M4.91644 20.5866C6.16978 20.3147 7.6294 20.0615 9.19216 19.8615C10.7518 19.6615 12.2145 19.5396 13.4679 19.4896C12.2145 19.7615 10.7549 20.0146 9.19216 20.2147C7.63252 20.4147 6.16978 20.5366 4.91644 20.5866ZM4.91644 9.26282C6.16978 9.53474 7.6294 9.78791 9.19216 9.98795C10.7518 10.188 12.2145 10.3099 13.4679 10.3599C12.2145 10.088 10.7549 9.83479 9.19216 9.63476C7.63252 9.43473 6.16978 9.31283 4.91644 9.26282Z" fill="#AAB5FF"/>
<path fill-rule="evenodd" clip-rule="evenodd" d="M33.8338 9.15656C35.5185 9.33784 37.4844 9.45661 39.5848 9.48162C41.6851 9.50662 43.648 9.43786 45.3357 9.30034C43.6511 9.11906 41.6851 9.00029 39.5848 8.97528C37.4875 8.94715 35.5216 9.01591 33.8338 9.15656ZM33.8338 20.6929C35.5185 20.5116 37.4844 20.3928 39.5848 20.3678C41.6851 20.3428 43.648 20.4116 45.3357 20.5491C43.6511 20.7304 41.6851 20.8492 39.5848 20.8742C37.4875 20.9023 35.5216 20.8335 33.8338 20.6929Z" fill="#AAB5FF"/>
<path fill-rule="evenodd" clip-rule="evenodd" d="M21.7286 29.5663C21.4005 29.6788 21.041 29.7257 20.7316 29.5413C20.3472 29.3131 20.1596 28.7974 20.0377 28.3911C19.869 27.8441 19.7564 27.2815 19.572 26.7377C19.5033 26.5408 19.4282 26.347 19.3376 26.1563L19.272 26.0188L19.4189 25.9782C19.8377 25.8657 20.2534 25.7531 20.6722 25.6438L20.7941 25.6125L20.8254 25.7344C21.1535 26.9627 21.4817 28.1879 21.813 29.4163L21.8443 29.5288L21.7286 29.5663Z" fill="#AAB5FF"/>
<path fill-rule="evenodd" clip-rule="evenodd" d="M21.6849 29.4476C20.019 30.0289 20.2378 27.7441 19.447 26.1001C19.8627 25.9876 20.2815 25.8751 20.7004 25.7657C21.0285 26.994 21.3567 28.2223 21.6849 29.4476Z" fill="#AAB5FF"/>
<path d="M19.3965 26.3626L19.5317 26.8668L21.017 26.4686L20.8819 25.9645L19.3965 26.3626Z" fill="#AAB5FF"/>
<path d="M19.5543 26.4565L19.6238 26.7162L20.8677 26.3832L20.7982 26.1235L19.5543 26.4565Z" fill="#AAB5FF"/>
<path fill-rule="evenodd" clip-rule="evenodd" d="M21.7286 0.280157C21.4005 0.167638 21.041 0.120756 20.7316 0.305162C20.3472 0.533326 20.1596 1.04904 20.0377 1.45535C19.869 2.00232 19.7564 2.56492 19.572 3.10876C19.5033 3.30567 19.4282 3.49945 19.3376 3.6901L19.272 3.82763L19.4189 3.86826C19.8377 3.98078 20.2534 4.09018 20.6722 4.2027L20.7941 4.23395L20.8254 4.11205C21.1535 2.88372 21.4817 1.65851 21.813 0.430181L21.8443 0.317662L21.7286 0.280157Z" fill="#AAB5FF"/>
<path fill-rule="evenodd" clip-rule="evenodd" d="M21.6849 0.398848C20.019 -0.179375 20.2378 2.10226 19.447 3.74629C19.8627 3.85881 20.2815 3.97133 20.7004 4.08072C21.0285 2.85551 21.3567 1.62718 21.6849 0.398848Z" fill="#AAB5FF"/>
<path fill-rule="evenodd" clip-rule="evenodd" d="M21.0192 3.37435L19.5345 2.97741L19.4001 3.48062L20.8848 3.87756L21.0192 3.37435Z" fill="#AAB5FF"/>
<path fill-rule="evenodd" clip-rule="evenodd" d="M20.866 3.46501L19.622 3.13058L19.5533 3.39L20.7941 3.72443L20.866 3.46501Z" fill="#F2F2F2"/>
<path fill-rule="evenodd" clip-rule="evenodd" d="M25.8481 18.9207V10.8693C25.8481 9.77853 26.7389 8.88775 27.8297 8.88775H30.8333C31.9241 8.88775 32.8149 9.77853 32.8149 10.8693V18.9207C32.8149 20.0115 31.9241 20.9023 30.8333 20.9023H27.8297C26.7389 20.9023 25.8481 20.0115 25.8481 18.9207Z" fill="#AAB5FF"/>
<path fill-rule="evenodd" clip-rule="evenodd" d="M26.2669 18.9208V10.8694C26.2669 10.0099 26.9702 9.30663 27.8297 9.30663H30.8333C31.6928 9.30663 32.3961 10.0099 32.3961 10.8694V18.9208C32.3961 19.7803 31.6928 20.4835 30.8333 20.4835H27.8297C26.9702 20.4835 26.2669 19.7803 26.2669 18.9208Z" fill="#F2F2F2"/>
<path fill-rule="evenodd" clip-rule="evenodd" d="M1.5096 7.91265C1.70651 7.13127 2.21596 6.32175 2.70354 5.68415C3.20988 5.02154 4.43509 3.65568 5.26648 3.43377L5.67592 3.32437L5.18521 4.04325L5.15397 4.062C4.9258 4.18702 4.60387 4.50895 4.41634 4.69336C4.04752 5.05904 3.69434 5.44974 3.35991 5.85293C2.97547 6.31551 2.55352 6.86247 2.27848 7.40006L2.27223 7.41256L1.3252 8.65652L1.5096 7.91265Z" fill="#AAB5FF"/>
<path fill-rule="evenodd" clip-rule="evenodd" d="M1.66272 7.95325L2.13468 7.33127C2.75353 6.12481 4.54758 4.21824 5.07267 3.92757L5.30396 3.59001C4.36317 3.84005 2.10342 6.20295 1.66272 7.95325Z" fill="#F2F2F2"/>
<path fill-rule="evenodd" clip-rule="evenodd" d="M1.35333 21.2211L2.33474 22.3213L2.34412 22.3401C2.61917 22.8777 3.04112 23.4246 3.42556 23.8872C3.75686 24.2873 4.11004 24.678 4.48198 25.0468C4.66951 25.2312 4.99144 25.5531 5.21961 25.6781L5.26336 25.7031L5.58842 26.4064L5.26336 26.3189C4.4351 26.0969 3.20989 24.7342 2.70043 24.0685C2.21598 23.434 1.70651 22.6214 1.50648 21.84L1.35333 21.2211Z" fill="#AAB5FF"/>
<path fill-rule="evenodd" clip-rule="evenodd" d="M1.66272 21.8056L2.20344 22.4119C2.82229 23.6184 4.61634 25.525 5.14143 25.8156L5.30396 26.1688C4.36317 25.9188 2.10342 23.5559 1.66272 21.8056Z" fill="#F2F2F2"/>
</svg>
