<svg width="60" height="30" viewBox="0 0 60 30" fill="none" xmlns="http://www.w3.org/2000/svg">
<path fill-rule="evenodd" clip-rule="evenodd" d="M52.8902 4.24963L44.6482 4.24963C44.4075 4.24963 44.2137 4.05585 44.2137 3.81519V2.95254C44.2137 2.715 44.4075 2.51809 44.6482 2.51809L52.8902 2.51809C53.1277 2.51809 53.3247 2.71187 53.3247 2.95254V3.81519C53.3247 4.05585 53.1309 4.24963 52.8902 4.24963Z" fill="#404041"/>
<path fill-rule="evenodd" clip-rule="evenodd" d="M52.8902 4.09332L44.6482 4.09332C44.495 4.09332 44.3731 3.9683 44.3731 3.81515V2.9525C44.3731 2.79935 44.4981 2.67746 44.6482 2.67746L52.8902 2.67746C53.0433 2.67746 53.1652 2.80248 53.1652 2.9525V3.81515C53.1683 3.9683 53.0433 4.09332 52.8902 4.09332Z" fill="url(#paint0_linear)"/>
<path fill-rule="evenodd" clip-rule="evenodd" d="M52.8902 26.9659H44.6482C44.4075 26.9659 44.2137 26.7722 44.2137 26.5315V25.6688C44.2137 25.4313 44.4075 25.2344 44.6482 25.2344H52.8902C53.1277 25.2344 53.3247 25.4282 53.3247 25.6688V26.5346C53.3247 26.7722 53.1309 26.9659 52.8902 26.9659Z" fill="#404041"/>
<path fill-rule="evenodd" clip-rule="evenodd" d="M52.8902 26.8097H44.6482C44.495 26.8097 44.3731 26.6847 44.3731 26.5346V25.672C44.3731 25.5188 44.4981 25.397 44.6482 25.397H52.8902C53.0433 25.397 53.1652 25.522 53.1652 25.672V26.5346C53.1683 26.6847 53.0433 26.8097 52.8902 26.8097Z" fill="url(#paint1_linear)"/>
<path fill-rule="evenodd" clip-rule="evenodd" d="M18.1687 3.58075L9.92669 3.58075C9.68915 3.58075 9.49225 3.38697 9.49225 3.1463V2.28053C9.49225 2.04299 9.68603 1.84608 9.92669 1.84608L18.1687 1.84608C18.4062 1.84608 18.6032 2.03986 18.6032 2.28053V3.1463C18.6032 3.38697 18.4094 3.58075 18.1687 3.58075Z" fill="#404041"/>
<path fill-rule="evenodd" clip-rule="evenodd" d="M18.1687 3.4245L9.92666 3.4245C9.77351 3.4245 9.65161 3.29948 9.65161 3.14945V2.28368C9.65161 2.13053 9.77663 2.00864 9.92666 2.00864L18.1687 2.00864C18.3218 2.00864 18.4437 2.13365 18.4437 2.28368V3.14945C18.4468 3.29948 18.3218 3.4245 18.1687 3.4245Z" fill="url(#paint2_linear)"/>
<path fill-rule="evenodd" clip-rule="evenodd" d="M18.1687 27.6348H9.92669C9.68915 27.6348 9.49225 27.441 9.49225 27.2004V26.3377C9.49225 26.1002 9.68603 25.9033 9.92669 25.9033H18.1687C18.4062 25.9033 18.6032 26.0971 18.6032 26.3377V27.2004C18.6032 27.441 18.4094 27.6348 18.1687 27.6348Z" fill="#404041"/>
<path fill-rule="evenodd" clip-rule="evenodd" d="M18.1687 27.4786H9.92666C9.77351 27.4786 9.65161 27.3536 9.65161 27.2035V26.3409C9.65161 26.1877 9.77663 26.0658 9.92666 26.0658H18.1687C18.3218 26.0658 18.4437 26.1909 18.4437 26.3409V27.2035C18.4468 27.3536 18.3218 27.4786 18.1687 27.4786Z" fill="url(#paint3_linear)"/>
<path fill-rule="evenodd" clip-rule="evenodd" d="M54.3998 26.0315L5.6072 27.0816C3.48496 27.1285 0 22.2464 0 20.143L0 9.35052C0 7.24392 3.48496 2.36497 5.6072 2.40872L54.3998 3.4589C61.6323 3.61205 61.6917 25.8971 54.3998 26.0315Z" fill="#630000"/>
<path fill-rule="evenodd" clip-rule="evenodd" d="M54.3967 25.872L5.60411 26.9222C3.55064 26.9659 0.156311 22.137 0.156311 20.1398L0.156311 9.34735C0.156311 7.35014 3.55064 2.5212 5.60411 2.56496L54.3967 3.61513C61.4198 3.76516 61.4792 25.7439 54.3967 25.872Z" fill="#E0E0E0"/>
<path fill-rule="evenodd" clip-rule="evenodd" d="M0.162491 20.2555C0.159366 20.218 0.159363 20.1774 0.159363 20.1398L0.159363 9.3474C0.159363 9.3099 0.159366 9.27239 0.162491 9.23176C0.571935 9.49743 0.846983 9.96 0.846983 10.4851L0.846983 19.0022C0.843857 19.5241 0.571935 19.9867 0.162491 20.2555Z" fill="url(#paint4_linear)"/>
<path fill-rule="evenodd" clip-rule="evenodd" d="M54.3811 25.0875C53.0558 25.0938 53.2496 25.1063 51.9244 25.1125H51.665L51.7837 24.8813C55.2312 18.1207 55.2312 11.3665 51.7837 4.60283L51.665 4.37155H51.9244C53.2496 4.3778 53.0558 4.38718 54.3779 4.39655C54.6405 4.39655 54.8968 4.44969 55.1437 4.5372C56.5314 5.03103 57.3972 6.74382 57.866 8.04404C58.613 10.1288 58.8943 12.526 58.8974 14.7327C58.9006 16.9362 58.6318 19.3272 57.8942 21.4119C57.4316 22.7215 56.5721 24.4312 55.1843 24.9375C54.928 25.0313 54.6561 25.0813 54.3811 25.0875Z" fill="#810000"/>
<path fill-rule="evenodd" clip-rule="evenodd" d="M54.3779 24.9281C54.6373 24.9219 54.8874 24.8781 55.1312 24.7875C56.4689 24.2999 57.3034 22.6059 57.7472 21.3557C58.4755 19.3022 58.7443 16.9018 58.7412 14.7296C58.738 12.5542 58.4567 10.1507 57.716 8.09718C57.269 6.85635 56.4283 5.15919 55.0905 4.68411C54.8593 4.60284 54.6186 4.55596 54.3748 4.55284C52.8527 4.54346 53.4434 4.53721 51.9213 4.52783C55.3937 11.3352 55.3937 18.1395 51.9213 24.9469C53.4465 24.9438 52.8558 24.9375 54.3779 24.9281Z" fill="#E0E0E0"/>
<path fill-rule="evenodd" clip-rule="evenodd" d="M23.6603 22.5934C20.9067 23.0403 19.2002 24.5375 16.4466 24.9844C15.9809 25.0594 15.5339 24.7844 15.3933 24.3312C13.4086 17.9301 13.2898 11.5259 15.3902 5.1342C15.5371 4.69038 15.9778 4.42158 16.4403 4.49659C19.1971 4.94354 20.9036 6.44068 23.6603 6.88763C23.9135 6.92826 24.1292 7.06265 24.2792 7.27206C24.4292 7.48147 24.4855 7.72839 24.4417 7.98156C23.5415 13.1731 23.5415 16.3048 24.4417 21.4963C24.4855 21.7495 24.4292 21.9964 24.2792 22.2058C24.126 22.4184 23.9135 22.5528 23.6603 22.5934Z" fill="#810000"/>
<path fill-rule="evenodd" clip-rule="evenodd" d="M16.0027 4.31218L15.9308 4.50596C13.2898 11.6728 13.2898 17.8082 15.9308 24.975L16.0027 25.1688L6.21045 25.8689C4.69457 25.9346 1.20648 21.9995 1.20648 20.1273L1.20648 9.33177C1.41589 7.36269 4.54455 3.53392 6.20733 3.60894L16.0027 4.31218Z" fill="#630000"/>
<path fill-rule="evenodd" clip-rule="evenodd" d="M15.7808 25.0313C13.1241 17.8207 13.1241 11.6603 15.7808 4.45282L6.20105 3.76832C4.60078 3.73394 1.56589 7.45332 1.36273 9.35052C1.36273 12.9449 1.36273 16.5361 1.36273 20.1305C1.56589 22.0277 4.60078 25.747 6.20105 25.7127L15.7808 25.0313Z" fill="#E0E0E0"/>
<path fill-rule="evenodd" clip-rule="evenodd" d="M23.5915 22.1807C20.8379 22.6277 19.1313 24.1248 16.3778 24.5718C16.1183 24.6155 15.8714 24.4593 15.7933 24.2092C13.8367 17.8957 13.7117 11.5821 15.787 5.26852C15.8683 5.0216 16.1121 4.87158 16.3684 4.91533C19.1251 5.36228 20.8347 6.85941 23.5915 7.30949C23.7352 7.33137 23.8509 7.40326 23.9353 7.52203C24.0197 7.6408 24.0509 7.77207 24.0259 7.91584C23.1133 13.1699 23.1133 16.3235 24.0259 21.5744C24.0509 21.7182 24.0197 21.8494 23.9353 21.9682C23.8509 22.0839 23.7352 22.1557 23.5915 22.1807Z" fill="url(#paint5_radial)"/>
<path fill-rule="evenodd" clip-rule="evenodd" d="M23.5915 22.1808C20.8379 22.6278 19.1314 24.1249 16.3778 24.5718C16.2371 24.5937 16.0996 24.5593 15.9902 24.4812C14.1024 18.2489 14.0118 12.0166 16.059 5.78116C16.1402 5.53424 16.384 5.38422 16.6435 5.42798C19.4002 5.87493 21.1067 7.37206 23.8634 7.81901C23.9228 7.82838 23.9791 7.84713 24.0291 7.87526C24.0291 7.88777 24.026 7.90027 24.0228 7.91277C23.1102 13.1668 23.1102 16.3204 24.0228 21.5713C24.0478 21.7151 24.0166 21.8464 23.9322 21.9651C23.8509 22.0839 23.7353 22.1558 23.5915 22.1808Z" fill="url(#paint6_radial)"/>
<path fill-rule="evenodd" clip-rule="evenodd" d="M51.3368 5.77175C55.0249 8.5691 55.0249 20.9368 51.3368 23.7342C50.7554 24.3311 49.1426 24.0967 48.4363 23.9436C47.7393 23.7935 46.8048 23.4997 46.2797 23.0028L45.8765 22.6246C48.4769 20.7399 48.4863 8.75663 45.8734 6.88757L46.2797 6.50625C47.2736 5.56547 50.5273 4.94349 51.3368 5.77175Z" fill="#A30D11"/>
<path fill-rule="evenodd" clip-rule="evenodd" d="M46.5641 22.6996C47.5049 23.5842 50.546 24.028 51.0523 23.4248C54.5529 20.8431 54.5529 8.67226 51.0523 6.08745C50.546 5.48422 47.5049 5.92805 46.5641 6.81258C48.9801 8.25032 48.9457 21.2588 46.5641 22.6996Z" fill="url(#paint7_radial)"/>
<path fill-rule="evenodd" clip-rule="evenodd" d="M33.9308 25.1375C33.9402 25.3813 34.0277 25.5845 34.2433 25.7001L34.3402 25.7532L34.4496 25.7501C37.6408 25.6814 40.8288 25.6032 44.0168 25.5313L44.2231 25.5282L44.345 25.3594C44.4763 25.1781 44.5169 24.9719 44.5076 24.7562C44.6763 25.0406 44.8857 25.2938 45.1733 25.4532L45.2796 25.5126L48.777 25.3063C47.3018 23.134 44.7857 23.2966 43.7074 23.2966C40.7257 23.2966 37.7439 23.2966 34.759 23.2966H33.9464C32.043 23.2966 30.1395 23.2966 28.2392 23.2966H28.2298H28.2204C26.4889 23.3653 24.5261 23.5247 22.8633 24.0405C21.9881 24.3124 21.1442 24.7031 20.491 25.3594L19.7628 26.097L20.8004 26.0752C24.9043 25.9845 29.0081 25.8564 33.1119 25.7689H33.1306L33.1494 25.7657C33.5338 25.7282 33.7682 25.4688 33.9308 25.1375Z" fill="#810000"/>
<path fill-rule="evenodd" clip-rule="evenodd" d="M44.0106 25.1157C40.6726 25.1876 37.7814 25.2595 34.4434 25.3345C34.1465 25.1751 34.6153 24.1093 34.7684 23.7217C37.7502 23.7217 40.7319 23.7217 43.7168 23.7217C43.9075 24.1155 44.2513 24.7844 44.0106 25.1157Z" fill="url(#paint8_linear)"/>
<path fill-rule="evenodd" clip-rule="evenodd" d="M48.0144 24.9344L45.3827 25.0906C44.9232 24.8375 44.6513 24.1092 44.4606 23.7185C45.939 23.756 46.8954 23.8592 48.0144 24.9344Z" fill="url(#paint9_linear)"/>
<path fill-rule="evenodd" clip-rule="evenodd" d="M33.1087 25.3501C28.386 25.4532 25.5199 25.5564 20.7972 25.6564C21.638 24.8062 23.3352 23.9155 28.2423 23.7185C30.1457 23.7185 32.0491 23.7185 33.9495 23.7185C33.7869 24.1936 33.64 25.2938 33.1087 25.3501Z" fill="url(#paint10_linear)"/>
<path fill-rule="evenodd" clip-rule="evenodd" d="M33.9308 4.34656C33.9402 4.10277 34.0277 3.89961 34.2433 3.78396L34.3402 3.73395L34.4496 3.73708C37.6408 3.80584 40.8288 3.88398 44.0168 3.95587L44.2231 3.95899L44.345 4.12777C44.4763 4.30593 44.5169 4.51533 44.5076 4.731C44.6763 4.44657 44.8857 4.19341 45.1733 4.03088L45.2796 3.9715L48.777 4.17778C47.3018 6.35002 44.7857 6.18749 43.7074 6.18749C40.7257 6.18749 37.7439 6.18749 34.759 6.18749L33.9464 6.18749C32.043 6.18749 30.1395 6.18749 28.2392 6.18749H28.2298H28.2204C26.4889 6.11873 24.5261 5.95933 22.8633 5.44362C21.9881 5.1717 21.1442 4.78413 20.491 4.12464L19.7628 3.38702L20.8004 3.4089C24.9043 3.49954 29.0081 3.62768 33.1119 3.7152H33.1306L33.1494 3.71833C33.5338 3.75896 33.7682 4.01838 33.9308 4.34656Z" fill="#810000"/>
<path fill-rule="evenodd" clip-rule="evenodd" d="M44.0106 4.37152C40.6725 4.29963 37.7814 4.22775 34.4433 4.15273C34.1464 4.31214 34.6152 5.37481 34.7684 5.7655C37.7501 5.7655 40.7319 5.7655 43.7168 5.7655C43.9074 5.36856 44.2512 4.6997 44.0106 4.37152Z" fill="url(#paint11_linear)"/>
<path fill-rule="evenodd" clip-rule="evenodd" d="M48.0144 4.55285L45.3827 4.39657C44.9232 4.64974 44.6513 5.37799 44.4606 5.76868C45.939 5.73117 46.8954 5.62803 48.0144 4.55285Z" fill="url(#paint12_linear)"/>
<path fill-rule="evenodd" clip-rule="evenodd" d="M33.1087 4.13715C28.386 4.03401 25.5199 3.93087 20.7972 3.83085C21.638 4.68099 23.3352 5.57177 28.2423 5.76868C30.1457 5.76868 32.0491 5.76868 33.9495 5.76868C33.7869 5.29047 33.64 4.19341 33.1087 4.13715Z" fill="url(#paint13_linear)"/>
<path fill-rule="evenodd" clip-rule="evenodd" d="M32.4023 26.0002C32.1961 26.0033 31.324 26.0502 31.324 25.8627V25.6908L32.9774 25.6595C32.9993 25.8908 32.6774 25.9971 32.4023 26.0002Z" fill="#929497"/>
<path fill-rule="evenodd" clip-rule="evenodd" d="M32.8993 25.7033C32.9181 25.9002 32.5493 25.9502 32.4055 25.9502C32.1992 25.9533 31.3897 25.9815 31.3897 25.8596C31.3897 25.8283 31.3897 25.8064 31.3897 25.7346C31.8992 25.7252 32.3899 25.7158 32.8993 25.7033Z" fill="url(#paint14_linear)"/>
<path fill-rule="evenodd" clip-rule="evenodd" d="M43.3635 25.7846C43.1572 25.7877 42.2852 25.8346 42.2852 25.647V25.4751L43.9386 25.4439C43.9574 25.6752 43.6354 25.7814 43.3635 25.7846Z" fill="#929497"/>
<path fill-rule="evenodd" clip-rule="evenodd" d="M43.8574 25.4907C43.8762 25.6845 43.5073 25.7376 43.3636 25.7376C43.1573 25.7408 42.3478 25.7689 42.3478 25.6439C42.3478 25.6157 42.3478 25.5907 42.3478 25.5188C42.8572 25.5095 43.3479 25.5001 43.8574 25.4907Z" fill="url(#paint15_linear)"/>
<path fill-rule="evenodd" clip-rule="evenodd" d="M32.4023 3.4839C32.1961 3.48078 31.324 3.43389 31.324 3.62142V3.79333L32.9774 3.82458C32.9993 3.5933 32.6774 3.48703 32.4023 3.4839Z" fill="#929497"/>
<path fill-rule="evenodd" clip-rule="evenodd" d="M32.8993 3.77765C32.9181 3.58387 32.5493 3.53386 32.4055 3.53073C32.1992 3.52761 31.3897 3.49948 31.3897 3.62137C31.3897 3.6495 31.3897 3.67451 31.3897 3.7464C31.8992 3.7589 32.3899 3.76827 32.8993 3.77765Z" fill="url(#paint16_linear)"/>
<path fill-rule="evenodd" clip-rule="evenodd" d="M43.3635 3.69954C43.1572 3.69641 42.2852 3.64953 42.2852 3.83706V4.00896L43.9386 4.04022C43.9574 3.80893 43.6354 3.70266 43.3635 3.69954Z" fill="#929497"/>
<path fill-rule="evenodd" clip-rule="evenodd" d="M43.8574 3.99341C43.8762 3.7965 43.5073 3.74649 43.3636 3.74649C43.1573 3.74337 42.3478 3.71524 42.3478 3.83713C42.3478 3.86526 42.3478 3.89027 42.3478 3.96216C42.8572 3.97466 43.3479 3.98403 43.8574 3.99341Z" fill="url(#paint17_linear)"/>
<path fill-rule="evenodd" clip-rule="evenodd" d="M45.4983 22.7996C37.3688 22.9059 30.152 22.7527 25.6887 23.0528C25.0355 23.0965 24.4666 22.6152 24.3666 21.9401C23.6759 17.1705 23.6759 12.3166 24.3666 7.54704C24.4635 6.87193 25.0355 6.39059 25.6887 6.43435C30.1551 6.7344 37.3719 6.58126 45.4983 6.68752C48.7489 6.65939 48.7489 22.8277 45.4983 22.7996Z" fill="#E0E0E0"/>
<path fill-rule="evenodd" clip-rule="evenodd" d="M4.0976 20.4055C5.35093 20.1335 6.81055 19.8804 8.37331 19.6803C9.93295 19.4803 11.3957 19.3584 12.649 19.3084C11.3957 19.5803 9.93608 19.8335 8.37331 20.0335C6.81368 20.2336 5.35093 20.3554 4.0976 20.4055ZM4.0976 9.08167C5.35093 9.35359 6.81055 9.60676 8.37331 9.80679C9.93295 10.0068 11.3957 10.1287 12.649 10.1787C11.3957 9.90681 9.93608 9.65364 8.37331 9.45361C6.81368 9.25357 5.35093 9.13168 4.0976 9.08167Z" fill="#AA0F14"/>
<path fill-rule="evenodd" clip-rule="evenodd" d="M33.015 8.97541C34.6996 9.15669 36.6656 9.27546 38.7659 9.30047C40.8663 9.32547 42.8291 9.25671 44.5169 9.11918C42.8322 8.9379 40.8663 8.81913 38.7659 8.79413C36.6687 8.766 34.7027 8.83476 33.015 8.97541ZM33.015 20.5117C34.6996 20.3305 36.6656 20.2117 38.7659 20.1867C40.8663 20.1617 42.8291 20.2304 44.5169 20.368C42.8322 20.5492 40.8663 20.668 38.7659 20.693C36.6687 20.7211 34.7027 20.6524 33.015 20.5117Z" fill="#AA0F14"/>
<path fill-rule="evenodd" clip-rule="evenodd" d="M20.9098 29.3851C20.5816 29.4977 20.2222 29.5445 19.9128 29.3601C19.5283 29.132 19.3408 28.6163 19.2189 28.2099C19.0501 27.663 18.9376 27.1004 18.7532 26.5565C18.6844 26.3596 18.6094 26.1658 18.5188 25.9752L18.4531 25.8377L18.6 25.797C19.0188 25.6845 19.4345 25.572 19.8534 25.4626L19.9753 25.4313L20.0065 25.5532C20.3347 26.7816 20.6629 28.0068 20.9942 29.2351L21.0254 29.3476L20.9098 29.3851Z" fill="#810000"/>
<path fill-rule="evenodd" clip-rule="evenodd" d="M20.8661 29.2664C19.2001 29.8477 19.4189 27.563 18.6282 25.919C19.0439 25.8064 19.4627 25.6939 19.8815 25.5845C20.2097 26.8129 20.5379 28.0412 20.8661 29.2664Z" fill="#E0E0E0"/>
<path d="M18.5777 26.1814L18.7128 26.6856L20.1981 26.2875L20.063 25.7833L18.5777 26.1814Z" fill="#810000"/>
<path d="M18.7354 26.2754L18.8049 26.535L20.0489 26.202L19.9794 25.9424L18.7354 26.2754Z" fill="#B01117"/>
<path fill-rule="evenodd" clip-rule="evenodd" d="M20.9098 0.099005C20.5816 -0.013514 20.2222 -0.0603963 19.9128 0.12401C19.5283 0.352173 19.3408 0.867883 19.2189 1.2742C19.0501 1.82117 18.9376 2.38377 18.7532 2.92761C18.6844 3.12452 18.6094 3.31829 18.5188 3.50895L18.4531 3.64648L18.6 3.68711C19.0188 3.79963 19.4345 3.90902 19.8534 4.02154L19.9753 4.0528L20.0065 3.9309C20.3347 2.70257 20.6629 1.47736 20.9942 0.249029L21.0254 0.13651L20.9098 0.099005Z" fill="#E0E0E0"/>
<path fill-rule="evenodd" clip-rule="evenodd" d="M20.8661 0.217726C19.2001 -0.360496 19.4189 1.92114 18.6282 3.56517C19.0439 3.67769 19.4627 3.7902 19.8815 3.8996C20.2097 2.67439 20.5379 1.44606 20.8661 0.217726Z" fill="#E0E0E0"/>
<path fill-rule="evenodd" clip-rule="evenodd" d="M20.2003 3.1932L18.7157 2.79626L18.5813 3.29947L20.0659 3.69641L20.2003 3.1932Z" fill="#E0E0E0"/>
<path fill-rule="evenodd" clip-rule="evenodd" d="M20.0472 3.28386L18.8032 2.94943L18.7344 3.20884L19.9753 3.54327L20.0472 3.28386Z" fill="#F2F2F2"/>
<path fill-rule="evenodd" clip-rule="evenodd" d="M25.0292 18.7395V10.6882C25.0292 9.59738 25.92 8.7066 27.0108 8.7066H30.0144C31.1053 8.7066 31.996 9.59738 31.996 10.6882V18.7395C31.996 19.8304 31.1053 20.7211 30.0144 20.7211H27.0108C25.92 20.7211 25.0292 19.8304 25.0292 18.7395Z" fill="#810000"/>
<path fill-rule="evenodd" clip-rule="evenodd" d="M25.4481 18.7396V10.6882C25.4481 9.82872 26.1513 9.12548 27.0108 9.12548H30.0145C30.874 9.12548 31.5772 9.82872 31.5772 10.6882V18.7396C31.5772 19.5991 30.874 20.3024 30.0145 20.3024H27.0108C26.1513 20.3024 25.4481 19.5991 25.4481 18.7396Z" fill="url(#paint18_radial)"/>
<path fill-rule="evenodd" clip-rule="evenodd" d="M0.690753 7.73147C0.887661 6.95009 1.39711 6.14057 1.8847 5.50296C2.39103 4.84035 3.61624 3.4745 4.44763 3.25259L4.85708 3.14319L4.36637 3.86206L4.33512 3.88081C4.10696 4.00584 3.78502 4.32777 3.59749 4.51217C3.22868 4.87786 2.87549 5.26855 2.54106 5.67175C2.15662 6.13432 1.73468 6.68129 1.45963 7.21888L1.45338 7.23138L0.506348 8.47534L0.690753 7.73147Z" fill="#810000"/>
<path fill-rule="evenodd" clip-rule="evenodd" d="M0.843872 7.77209L1.31583 7.15011C1.93468 5.94366 3.72874 4.03709 4.25382 3.74641L4.48511 3.40886C3.54433 3.6589 1.28457 6.0218 0.843872 7.77209Z" fill="#FFFBD4"/>
<path fill-rule="evenodd" clip-rule="evenodd" d="M0.534485 21.04L1.5159 22.1402L1.52527 22.1589C1.80032 22.6965 2.22227 23.2435 2.60671 23.706C2.93802 24.1061 3.29119 24.4968 3.66313 24.8656C3.85066 25.05 4.1726 25.372 4.40076 25.497L4.44451 25.522L4.76957 26.2252L4.44451 26.1377C3.61625 25.9158 2.39105 24.5531 1.88159 23.8873C1.39713 23.2528 0.887666 22.4402 0.687633 21.6588L0.534485 21.04Z" fill="#810000"/>
<path fill-rule="evenodd" clip-rule="evenodd" d="M0.843872 21.6244L1.38459 22.2308C2.00345 23.4372 3.7975 25.3438 4.32259 25.6345L4.48511 25.9877C3.54433 25.7376 1.28457 23.3747 0.843872 21.6244Z" fill="#FFFBD4"/>
<defs>
<linearGradient id="paint0_linear" x1="44.3741" y1="3.38527" x2="52.301" y2="3.38527" gradientUnits="userSpaceOnUse">
<stop stop-color="#404041"/>
<stop offset="0.27" stop-color="#808184"/>
<stop offset="0.54" stop-color="#A6A8AB"/>
<stop offset="1" stop-color="#231F20"/>
</linearGradient>
<linearGradient id="paint1_linear" x1="44.3741" y1="26.1011" x2="52.301" y2="26.1011" gradientUnits="userSpaceOnUse">
<stop stop-color="#404041"/>
<stop offset="0.27" stop-color="#808184"/>
<stop offset="0.54" stop-color="#A6A8AB"/>
<stop offset="1" stop-color="#231F20"/>
</linearGradient>
<linearGradient id="paint2_linear" x1="9.65205" y1="2.71594" x2="17.5791" y2="2.71594" gradientUnits="userSpaceOnUse">
<stop stop-color="#404041"/>
<stop offset="0.27" stop-color="#808184"/>
<stop offset="0.54" stop-color="#A6A8AB"/>
<stop offset="1" stop-color="#231F20"/>
</linearGradient>
<linearGradient id="paint3_linear" x1="9.65205" y1="26.7705" x2="17.5791" y2="26.7705" gradientUnits="userSpaceOnUse">
<stop stop-color="#404041"/>
<stop offset="0.27" stop-color="#808184"/>
<stop offset="0.54" stop-color="#A6A8AB"/>
<stop offset="1" stop-color="#231F20"/>
</linearGradient>
<linearGradient id="paint4_linear" x1="0.845295" y1="14.7431" x2="-1.96004" y2="14.7431" gradientUnits="userSpaceOnUse">
<stop stop-color="#810000"/>
<stop offset="0.07" stop-color="#B01117"/>
<stop offset="0.5" stop-color="#EC1C24"/>
<stop offset="0.93" stop-color="#B01117"/>
<stop offset="1" stop-color="#810000"/>
</linearGradient>
<radialGradient id="paint5_radial" cx="0" cy="0" r="1" gradientUnits="userSpaceOnUse" gradientTransform="translate(28.9107 15.5294) rotate(-90) scale(13.7421)">
<stop stop-color="#AEB0B3"/>
<stop offset="1" stop-color="#808184"/>
</radialGradient>
<radialGradient id="paint6_radial" cx="0" cy="0" r="1" gradientUnits="userSpaceOnUse" gradientTransform="translate(28.775 15.5749) rotate(-90) scale(15.0304)">
<stop stop-color="#808184"/>
<stop offset="1" stop-color="#231F20"/>
</radialGradient>
<radialGradient id="paint7_radial" cx="0" cy="0" r="1" gradientUnits="userSpaceOnUse" gradientTransform="translate(43.0087 14.9333) rotate(-90) scale(12.0744)">
<stop stop-color="#808184"/>
<stop offset="1" stop-color="#231F20"/>
</radialGradient>
<linearGradient id="paint8_linear" x1="39.2195" y1="24.042" x2="39.2195" y2="25.0105" gradientUnits="userSpaceOnUse">
<stop stop-color="#403F3A"/>
<stop offset="1" stop-color="#8B8B83"/>
</linearGradient>
<linearGradient id="paint9_linear" x1="46.2369" y1="23.954" x2="46.2369" y2="24.8242" gradientUnits="userSpaceOnUse">
<stop stop-color="#231F20"/>
<stop offset="1" stop-color="#808184"/>
</linearGradient>
<linearGradient id="paint10_linear" x1="27.375" y1="24.107" x2="27.375" y2="25.2704" gradientUnits="userSpaceOnUse">
<stop stop-color="#403F3A"/>
<stop offset="1" stop-color="#8B8B83"/>
</linearGradient>
<linearGradient id="paint11_linear" x1="39.2195" y1="4.47632" x2="39.2195" y2="5.44464" gradientUnits="userSpaceOnUse">
<stop stop-color="#403F3A"/>
<stop offset="1" stop-color="#8B8B83"/>
</linearGradient>
<linearGradient id="paint12_linear" x1="46.2369" y1="4.66999" x2="46.2369" y2="5.49326" gradientUnits="userSpaceOnUse">
<stop stop-color="#403F3A"/>
<stop offset="1" stop-color="#8B8B83"/>
</linearGradient>
<linearGradient id="paint13_linear" x1="27.375" y1="4.21632" x2="27.375" y2="5.37964" gradientUnits="userSpaceOnUse">
<stop stop-color="#403F3A"/>
<stop offset="1" stop-color="#8B8B83"/>
</linearGradient>
<linearGradient id="paint14_linear" x1="32.9103" y1="25.8241" x2="31.3726" y2="25.851" gradientUnits="userSpaceOnUse">
<stop stop-color="#D0D2D3"/>
<stop offset="0.11" stop-color="#F1F1F2"/>
<stop offset="0.68" stop-color="#F1F1F2"/>
<stop offset="1" stop-color="#D0D2D3"/>
</linearGradient>
<linearGradient id="paint15_linear" x1="43.8691" y1="25.6099" x2="42.3312" y2="25.6367" gradientUnits="userSpaceOnUse">
<stop stop-color="#D0D2D3"/>
<stop offset="0.11" stop-color="#F1F1F2"/>
<stop offset="0.68" stop-color="#F1F1F2"/>
<stop offset="1" stop-color="#D0D2D3"/>
</linearGradient>
<linearGradient id="paint16_linear" x1="31.3724" y1="3.63234" x2="32.9101" y2="3.65919" gradientUnits="userSpaceOnUse">
<stop stop-color="#D0D2D3"/>
<stop offset="0.11" stop-color="#F1F1F2"/>
<stop offset="0.68" stop-color="#F1F1F2"/>
<stop offset="1" stop-color="#D0D2D3"/>
</linearGradient>
<linearGradient id="paint17_linear" x1="42.3309" y1="3.84698" x2="43.869" y2="3.87383" gradientUnits="userSpaceOnUse">
<stop stop-color="#D0D2D3"/>
<stop offset="0.11" stop-color="#F1F1F2"/>
<stop offset="0.68" stop-color="#F1F1F2"/>
<stop offset="1" stop-color="#D0D2D3"/>
</linearGradient>
<radialGradient id="paint18_radial" cx="0" cy="0" r="1" gradientUnits="userSpaceOnUse" gradientTransform="translate(34.6422 15.1609) rotate(-90) scale(12.1141)">
<stop stop-color="#808184"/>
<stop offset="1" stop-color="#231F20"/>
</radialGradient>
</defs>
</svg>
