<svg width="30" height="60" viewBox="0 0 30 60" fill="none" xmlns="http://www.w3.org/2000/svg">
<path fill-rule="evenodd" clip-rule="evenodd" d="M4.24927 6.95623L4.24927 15.1982C4.24927 15.4389 4.05549 15.6327 3.81482 15.6327H2.95217C2.71463 15.6327 2.51772 15.4389 2.51772 15.1982L2.51772 6.95623C2.51772 6.71869 2.71151 6.52178 2.95217 6.52178H3.81482C4.05549 6.52178 4.24927 6.71557 4.24927 6.95623Z" fill="#404041"/>
<path fill-rule="evenodd" clip-rule="evenodd" d="M4.09296 6.95627L4.09296 15.1983C4.09296 15.3514 3.96794 15.4733 3.81478 15.4733H2.95214C2.79899 15.4733 2.67709 15.3483 2.67709 15.1983L2.67709 6.95627C2.67709 6.80311 2.80211 6.68122 2.95214 6.68122H3.81478C3.96794 6.67809 4.09296 6.80311 4.09296 6.95627Z" fill="url(#paint0_linear)"/>
<path fill-rule="evenodd" clip-rule="evenodd" d="M26.9656 6.95623V15.1982C26.9656 15.4389 26.7718 15.6327 26.5311 15.6327H25.6685C25.4309 15.6327 25.234 15.4389 25.234 15.1982V6.95623C25.234 6.71869 25.4278 6.52178 25.6685 6.52178H26.5343C26.7718 6.52178 26.9656 6.71557 26.9656 6.95623Z" fill="#404041"/>
<path fill-rule="evenodd" clip-rule="evenodd" d="M26.8093 6.95627V15.1983C26.8093 15.3514 26.6843 15.4733 26.5343 15.4733H25.6716C25.5185 15.4733 25.3966 15.3483 25.3966 15.1983V6.95627C25.3966 6.80311 25.5216 6.68122 25.6716 6.68122H26.5343C26.6843 6.67809 26.8093 6.80311 26.8093 6.95627Z" fill="url(#paint1_linear)"/>
<path fill-rule="evenodd" clip-rule="evenodd" d="M3.58038 41.6777L3.58038 49.9197C3.58038 50.1573 3.3866 50.3542 3.14594 50.3542H2.28016C2.04262 50.3542 1.84571 50.1604 1.84571 49.9197L1.84571 41.6777C1.84571 41.4402 2.0395 41.2433 2.28016 41.2433H3.14594C3.3866 41.2433 3.58038 41.4371 3.58038 41.6777Z" fill="#404041"/>
<path fill-rule="evenodd" clip-rule="evenodd" d="M3.42413 41.6778L3.42413 49.9198C3.42413 50.0729 3.29911 50.1948 3.14909 50.1948H2.28331C2.13016 50.1948 2.00827 50.0698 2.00827 49.9198L2.00827 41.6778C2.00827 41.5246 2.13329 41.4027 2.28331 41.4027H3.14909C3.29911 41.3996 3.42413 41.5246 3.42413 41.6778Z" fill="url(#paint2_linear)"/>
<path fill-rule="evenodd" clip-rule="evenodd" d="M27.6345 41.6777V49.9197C27.6345 50.1573 27.4407 50.3542 27.2 50.3542H26.3374C26.0998 50.3542 25.9029 50.1604 25.9029 49.9197V41.6777C25.9029 41.4402 26.0967 41.2433 26.3374 41.2433H27.2C27.4407 41.2433 27.6345 41.4371 27.6345 41.6777Z" fill="#404041"/>
<path fill-rule="evenodd" clip-rule="evenodd" d="M27.4782 41.6778V49.9198C27.4782 50.0729 27.3532 50.1948 27.2032 50.1948H26.3405C26.1874 50.1948 26.0655 50.0698 26.0655 49.9198V41.6778C26.0655 41.5246 26.1905 41.4027 26.3405 41.4027H27.2032C27.3532 41.3996 27.4782 41.5246 27.4782 41.6778Z" fill="url(#paint3_linear)"/>
<path fill-rule="evenodd" clip-rule="evenodd" d="M26.0311 5.44663L27.0813 54.2392C27.1282 56.3615 22.2461 59.8464 20.1426 59.8464H9.35015C7.24355 59.8464 2.3646 56.3615 2.40836 54.2392L3.45853 5.44663C3.61169 -1.78584 25.8967 -1.84523 26.0311 5.44663Z" fill="#630000"/>
<path fill-rule="evenodd" clip-rule="evenodd" d="M25.8716 5.44972L26.9218 54.2423C26.9656 56.2958 22.1366 59.6901 20.1394 59.6901H9.34698C7.34977 59.6901 2.52083 56.2958 2.56459 54.2423L3.61477 5.44972C3.76479 -1.57334 25.7435 -1.63273 25.8716 5.44972Z" fill="#A8ADE0"/>
<path fill-rule="evenodd" clip-rule="evenodd" d="M20.2551 59.6839C20.2176 59.6871 20.177 59.6871 20.1395 59.6871H9.34704C9.30953 59.6871 9.27202 59.6871 9.23139 59.6839C9.49706 59.2745 9.95964 58.9995 10.4847 58.9995H19.0018C19.5238 59.0026 19.9863 59.2745 20.2551 59.6839Z" fill="url(#paint4_linear)"/>
<path fill-rule="evenodd" clip-rule="evenodd" d="M25.0872 5.46537C25.0934 6.7906 25.1059 6.59682 25.1122 7.92204V8.18146L24.8809 8.06269C18.1204 4.61523 11.3661 4.61523 4.60247 8.06269L4.37118 8.18146V7.92204C4.37743 6.59682 4.38681 6.7906 4.39619 5.4685C4.39619 5.20596 4.44932 4.94966 4.53683 4.70274C5.03067 3.31501 6.74346 2.44924 8.04368 1.98041C10.1284 1.23341 12.5257 0.952117 14.7323 0.948991C16.9358 0.945866 19.3268 1.21466 21.4116 1.95228C22.7212 2.41486 24.4308 3.27438 24.9372 4.66211C25.0309 4.9184 25.0809 5.19033 25.0872 5.46537Z" fill="#AAB5FF"/>
<path fill-rule="evenodd" clip-rule="evenodd" d="M24.9278 5.46851C24.9215 5.20909 24.8778 4.95905 24.7871 4.71526C24.2996 3.37753 22.6055 2.54302 21.3553 2.09919C19.3018 1.37094 16.9014 1.10215 14.7292 1.10528C12.5538 1.1084 10.1503 1.3897 8.09682 2.13045C6.85598 2.5774 5.15882 3.41817 4.68374 4.75589C4.60248 4.98718 4.5556 5.22785 4.55247 5.47164C4.54309 6.99377 4.53684 6.40304 4.52747 7.92517C11.3349 4.45271 18.1391 4.45271 24.9465 7.92517C24.9434 6.39991 24.9372 6.99064 24.9278 5.46851Z" fill="#A8ADE0"/>
<path fill-rule="evenodd" clip-rule="evenodd" d="M22.593 36.1861C23.04 38.9397 24.5371 40.6462 24.9841 43.3998C25.0591 43.8655 24.784 44.3125 24.3308 44.4531C17.9297 46.4378 11.5255 46.5566 5.13384 44.4563C4.69001 44.3094 4.42122 43.8687 4.49623 43.4061C4.94318 40.6494 6.44031 38.9428 6.88726 36.1861C6.92789 35.9329 7.06229 35.7173 7.2717 35.5673C7.48111 35.4172 7.72802 35.361 7.98119 35.4047C13.1727 36.3049 16.3045 36.3049 21.496 35.4047C21.7491 35.361 21.9961 35.4172 22.2055 35.5673C22.418 35.7204 22.5524 35.9329 22.593 36.1861Z" fill="#AAB5FF"/>
<path fill-rule="evenodd" clip-rule="evenodd" d="M4.31181 43.8437L4.50559 43.9156C11.6724 46.5567 17.8078 46.5567 24.9747 43.9156L25.1685 43.8437L25.8686 53.636C25.9342 55.1519 21.9992 58.64 20.127 58.64H9.33141C7.36233 58.4305 3.53356 55.3019 3.60857 53.6391L4.31181 43.8437Z" fill="#630000"/>
<path fill-rule="evenodd" clip-rule="evenodd" d="M25.0309 44.0656C17.8203 46.7223 11.6599 46.7223 4.45245 44.0656L3.76796 53.6454C3.73358 55.2457 7.45296 58.2805 9.35015 58.4837C12.9445 58.4837 16.5357 58.4837 20.1301 58.4837C22.0273 58.2805 25.7467 55.2457 25.7123 53.6454L25.0309 44.0656Z" fill="#A8ADE0"/>
<path fill-rule="evenodd" clip-rule="evenodd" d="M22.1804 36.255C22.6273 39.0086 24.1245 40.7151 24.5714 43.4687C24.6152 43.7281 24.4589 43.975 24.2089 44.0532C17.8953 46.0097 11.5817 46.1348 5.26815 44.0594C5.02124 43.9782 4.87121 43.7344 4.91497 43.4781C5.36192 40.7213 6.85905 39.0117 7.30912 36.255C7.331 36.1112 7.40289 35.9956 7.52166 35.9112C7.64043 35.8268 7.7717 35.7955 7.91547 35.8205C13.1695 36.7332 16.3231 36.7332 21.574 35.8205C21.7178 35.7955 21.8491 35.8268 21.9678 35.9112C22.0835 35.9956 22.1554 36.1112 22.1804 36.255Z" fill="url(#paint5_radial)"/>
<path fill-rule="evenodd" clip-rule="evenodd" d="M22.1804 36.2549C22.6274 39.0085 24.1245 40.7151 24.5715 43.4686C24.5933 43.6093 24.559 43.7468 24.4808 43.8562C18.2485 45.744 12.0162 45.8347 5.78079 43.7875C5.53388 43.7062 5.38386 43.4624 5.42761 43.203C5.87456 40.4463 7.37169 38.7397 7.81864 35.983C7.82802 35.9236 7.84677 35.8674 7.8749 35.8174C7.8874 35.8174 7.8999 35.8205 7.9124 35.8236C13.1664 36.7363 16.3201 36.7363 21.571 35.8236C21.7147 35.7986 21.846 35.8299 21.9648 35.9142C22.0835 35.9955 22.1554 36.1112 22.1804 36.2549Z" fill="url(#paint6_radial)"/>
<path fill-rule="evenodd" clip-rule="evenodd" d="M5.77139 8.50967C8.56873 4.82155 20.9364 4.82155 23.7338 8.50967C24.3308 9.09102 24.0964 10.7038 23.9432 11.4102C23.7932 12.1071 23.4994 13.0417 23.0024 13.5668L22.6242 13.97C20.7395 11.3695 8.75627 11.3601 6.8872 13.9731L6.50589 13.5668C5.5651 12.5729 4.94312 9.31918 5.77139 8.50967Z" fill="#212642"/>
<path fill-rule="evenodd" clip-rule="evenodd" d="M22.6993 13.2823C23.5838 12.3416 24.0276 9.30042 23.4244 8.79409C20.8427 5.2935 8.6719 5.2935 6.08708 8.79409C5.48386 9.30042 5.92769 12.3416 6.81221 13.2823C8.24995 10.8663 21.2584 10.9007 22.6993 13.2823Z" fill="url(#paint7_radial)"/>
<path fill-rule="evenodd" clip-rule="evenodd" d="M25.1371 25.9157C25.3809 25.9063 25.5841 25.8188 25.6997 25.6031L25.7529 25.5062L25.7497 25.3968C25.681 22.2057 25.6028 19.0176 25.531 15.8296L25.5278 15.6233L25.3591 15.5014C25.1778 15.3701 24.9715 15.3295 24.7558 15.3389C25.0403 15.1701 25.2934 14.9607 25.4528 14.6731L25.5122 14.5669L25.3059 11.0694C23.1337 12.5447 23.2962 15.0607 23.2962 16.139C23.2962 19.1208 23.2962 22.1025 23.2962 25.0874V25.9C23.2962 27.8035 23.2962 29.7069 23.2962 31.6073V31.6166V31.626C23.365 33.3575 23.5244 35.3204 24.0401 36.9832C24.312 37.8583 24.7027 38.7022 25.3591 39.3554L26.0967 40.0837L26.0748 39.046C25.9842 34.9422 25.856 30.8384 25.7685 26.7346V26.7158L25.7654 26.697C25.7279 26.3126 25.4684 26.0782 25.1371 25.9157Z" fill="#AAB5FF"/>
<path fill-rule="evenodd" clip-rule="evenodd" d="M25.1153 15.8358C25.1872 19.1739 25.2591 22.065 25.3341 25.4031C25.1747 25.7 24.1089 25.2312 23.7213 25.078C23.7213 22.0962 23.7213 19.1145 23.7213 16.1296C24.1151 15.939 24.784 15.5951 25.1153 15.8358Z" fill="url(#paint8_linear)"/>
<path fill-rule="evenodd" clip-rule="evenodd" d="M24.934 11.8321L25.0903 14.4638C24.8371 14.9232 24.1089 15.1951 23.7182 15.3858C23.7557 13.9074 23.8588 12.951 24.934 11.8321Z" fill="url(#paint9_linear)"/>
<path fill-rule="evenodd" clip-rule="evenodd" d="M25.3497 26.7377C25.4528 31.4604 25.556 34.3265 25.656 39.0492C24.8059 38.2084 23.9151 36.5113 23.7182 31.6042C23.7182 29.7007 23.7182 27.7973 23.7182 25.897C24.1933 26.0595 25.2934 26.2064 25.3497 26.7377Z" fill="url(#paint10_linear)"/>
<path fill-rule="evenodd" clip-rule="evenodd" d="M4.34619 25.9157C4.1024 25.9063 3.89924 25.8188 3.7836 25.6031L3.73359 25.5062L3.73671 25.3968C3.80548 22.2057 3.88361 19.0176 3.9555 15.8296L3.95862 15.6233L4.12741 15.5014C4.30556 15.3701 4.51497 15.3295 4.73063 15.3389C4.44621 15.1701 4.19304 14.9607 4.03051 14.6731L3.97113 14.5669L4.17741 11.0694C6.34966 12.5447 6.18713 15.0607 6.18713 16.139C6.18713 19.1208 6.18713 22.1025 6.18713 25.0874L6.18713 25.9C6.18713 27.8035 6.18713 29.7069 6.18713 31.6073V31.6166V31.626C6.11837 33.3575 5.95896 35.3204 5.44325 36.9832C5.17133 37.8583 4.78376 38.7022 4.12428 39.3554L3.38665 40.0837L3.40853 39.046C3.49917 34.9422 3.62732 30.8384 3.71483 26.7346V26.7158L3.71796 26.697C3.75859 26.3126 4.01801 26.0782 4.34619 25.9157Z" fill="#AAB5FF"/>
<path fill-rule="evenodd" clip-rule="evenodd" d="M4.37115 15.8359C4.29927 19.1739 4.22738 22.0651 4.15237 25.4031C4.31177 25.7 5.37445 25.2312 5.76514 25.0781C5.76514 22.0963 5.76514 19.1146 5.76514 16.1297C5.36819 15.939 4.69933 15.5952 4.37115 15.8359Z" fill="url(#paint11_linear)"/>
<path fill-rule="evenodd" clip-rule="evenodd" d="M4.55248 11.8321L4.3962 14.4638C4.64937 14.9232 5.37762 15.1951 5.76831 15.3858C5.7308 13.9074 5.62766 12.951 4.55248 11.8321Z" fill="url(#paint12_linear)"/>
<path fill-rule="evenodd" clip-rule="evenodd" d="M4.13679 26.7377C4.03364 31.4604 3.9305 34.3265 3.83048 39.0492C4.68063 38.2084 5.5714 36.5113 5.76831 31.6042C5.76831 29.7007 5.76831 27.7973 5.76831 25.897C5.2901 26.0595 4.19304 26.2064 4.13679 26.7377Z" fill="url(#paint13_linear)"/>
<path fill-rule="evenodd" clip-rule="evenodd" d="M25.9998 27.4441C26.003 27.6504 26.0498 28.5224 25.8623 28.5224H25.6904L25.6591 26.869C25.8904 26.8471 25.9967 27.169 25.9998 27.4441Z" fill="#929497"/>
<path fill-rule="evenodd" clip-rule="evenodd" d="M25.7029 26.9471C25.8998 26.9283 25.9499 27.2972 25.9499 27.4409C25.953 27.6472 25.9811 28.4567 25.8592 28.4567C25.828 28.4567 25.8061 28.4567 25.7342 28.4567C25.7248 27.9473 25.7154 27.4566 25.7029 26.9471Z" fill="url(#paint14_linear)"/>
<path fill-rule="evenodd" clip-rule="evenodd" d="M25.7842 16.4829C25.7873 16.6892 25.8342 17.5612 25.6467 17.5612H25.4748L25.4435 15.9078C25.6748 15.8891 25.7811 16.211 25.7842 16.4829Z" fill="#929497"/>
<path fill-rule="evenodd" clip-rule="evenodd" d="M25.4903 15.989C25.6841 15.9703 25.7373 16.3391 25.7373 16.4829C25.7404 16.6891 25.7685 17.4987 25.6435 17.4987C25.6154 17.4987 25.5904 17.4987 25.5185 17.4987C25.5091 16.9892 25.4997 16.4985 25.4903 15.989Z" fill="url(#paint15_linear)"/>
<path fill-rule="evenodd" clip-rule="evenodd" d="M3.48354 27.4441C3.48041 27.6504 3.43352 28.5224 3.62106 28.5224H3.79296L3.82422 26.869C3.59293 26.8471 3.48666 27.169 3.48354 27.4441Z" fill="#929497"/>
<path fill-rule="evenodd" clip-rule="evenodd" d="M3.77728 26.9471C3.5835 26.9283 3.53349 27.2972 3.53037 27.4409C3.52724 27.6472 3.49911 28.4567 3.62101 28.4567C3.64914 28.4567 3.67414 28.4567 3.74603 28.4567C3.75853 27.9473 3.76791 27.4566 3.77728 26.9471Z" fill="url(#paint16_linear)"/>
<path fill-rule="evenodd" clip-rule="evenodd" d="M3.69917 16.4829C3.69604 16.6892 3.64916 17.5612 3.83669 17.5612H4.0086L4.03986 15.9078C3.80857 15.8891 3.7023 16.211 3.69917 16.4829Z" fill="#929497"/>
<path fill-rule="evenodd" clip-rule="evenodd" d="M3.99304 15.989C3.79613 15.9703 3.74613 16.3391 3.74613 16.4829C3.743 16.6891 3.71487 17.4987 3.83677 17.4987C3.8649 17.4987 3.8899 17.4987 3.96179 17.4987C3.97429 16.9892 3.98367 16.4985 3.99304 15.989Z" fill="url(#paint17_linear)"/>
<path fill-rule="evenodd" clip-rule="evenodd" d="M22.7992 14.3481C22.9055 22.4776 22.7524 29.6945 23.0524 34.1577C23.0962 34.811 22.6148 35.3798 21.9397 35.4798C17.1702 36.1705 12.3162 36.1705 7.54668 35.4798C6.87156 35.3829 6.39023 34.811 6.43399 34.1577C6.73404 29.6913 6.58089 22.4745 6.68716 14.3481C6.65903 11.0976 22.8274 11.0976 22.7992 14.3481Z" fill="#A8ADE0"/>
<path fill-rule="evenodd" clip-rule="evenodd" d="M20.4051 55.7488C20.1332 54.4955 19.88 53.0359 19.68 51.4731C19.4799 49.9135 19.358 48.4507 19.308 47.1974C19.58 48.4507 19.8331 49.9104 20.0332 51.4731C20.2332 53.0328 20.3551 54.4955 20.4051 55.7488ZM9.08131 55.7488C9.35323 54.4955 9.60639 53.0359 9.80643 51.4731C10.0065 49.9135 10.1284 48.4507 10.1784 47.1974C9.90644 48.4507 9.65328 49.9104 9.45324 51.4731C9.25321 53.0328 9.13131 54.4955 9.08131 55.7488Z" fill="#AAB5FF"/>
<path fill-rule="evenodd" clip-rule="evenodd" d="M8.97504 26.8315C9.15633 25.1468 9.2751 23.1809 9.3001 21.0805C9.3251 18.9802 9.25634 17.0173 9.11882 15.3295C8.93754 17.0142 8.81877 18.9802 8.79376 21.0805C8.76563 23.1777 8.8344 25.1437 8.97504 26.8315ZM20.5114 26.8315C20.3301 25.1468 20.2113 23.1809 20.1863 21.0805C20.1613 18.9802 20.2301 17.0173 20.3676 15.3295C20.5489 17.0142 20.6676 18.9802 20.6926 21.0805C20.7208 23.1777 20.652 25.1437 20.5114 26.8315Z" fill="#AAB5FF"/>
<path fill-rule="evenodd" clip-rule="evenodd" d="M29.3848 38.9366C29.4973 39.2648 29.5442 39.6243 29.3598 39.9337C29.1316 40.3181 28.6159 40.5057 28.2096 40.6276C27.6626 40.7963 27.1 40.9089 26.5562 41.0933C26.3593 41.162 26.1655 41.237 25.9748 41.3277L25.8373 41.3933L25.7967 41.2464C25.6841 40.8276 25.5716 40.4119 25.4622 39.9931L25.431 39.8712L25.5529 39.8399C26.7812 39.5117 28.0064 39.1836 29.2347 38.8523L29.3473 38.821L29.3848 38.9366Z" fill="#AAB5FF"/>
<path fill-rule="evenodd" clip-rule="evenodd" d="M29.266 38.9804C29.8474 40.6463 27.5626 40.4275 25.9186 41.2183C25.8061 40.8026 25.6936 40.3837 25.5842 39.9649C26.8125 39.6367 28.0408 39.3086 29.266 38.9804Z" fill="#A8ADE0"/>
<path d="M26.1811 41.2687L26.6852 41.1336L26.2871 39.6483L25.783 39.7834L26.1811 41.2687Z" fill="#AAB5FF"/>
<path d="M26.275 41.111L26.5347 41.0415L26.2017 39.7976L25.942 39.8671L26.275 41.111Z" fill="#404041"/>
<path fill-rule="evenodd" clip-rule="evenodd" d="M0.0986388 38.9366C-0.0138802 39.2648 -0.0607625 39.6243 0.123644 39.9337C0.351807 40.3181 0.867517 40.5057 1.27384 40.6276C1.8208 40.7963 2.3834 40.9089 2.92724 41.0933C3.12415 41.162 3.31793 41.237 3.50859 41.3277L3.64611 41.3933L3.68674 41.2464C3.79926 40.8276 3.90866 40.4119 4.02118 39.9931L4.05243 39.8712L3.93053 39.8399C2.7022 39.5117 1.477 39.1836 0.248663 38.8523L0.136144 38.821L0.0986388 38.9366Z" fill="#A8ADE0"/>
<path fill-rule="evenodd" clip-rule="evenodd" d="M0.21736 38.9804C-0.360863 40.6463 1.92077 40.4275 3.5648 41.2183C3.67732 40.8026 3.78984 40.3837 3.89923 39.9649C2.67402 39.6367 1.44569 39.3086 0.21736 38.9804Z" fill="#A8ADE0"/>
<path fill-rule="evenodd" clip-rule="evenodd" d="M3.19283 39.6461L2.79589 41.1307L3.2991 41.2651L3.69604 39.7805L3.19283 39.6461Z" fill="#A8ADE0"/>
<path fill-rule="evenodd" clip-rule="evenodd" d="M3.28349 39.7993L2.94906 41.0432L3.20848 41.112L3.54291 39.8712L3.28349 39.7993Z" fill="#F2F2F2"/>
<path fill-rule="evenodd" clip-rule="evenodd" d="M18.7392 34.8172H10.6878C9.59701 34.8172 8.70624 33.9264 8.70624 32.8356L8.70624 29.832C8.70624 28.7412 9.59701 27.8504 10.6878 27.8504H18.7392C19.83 27.8504 20.7208 28.7412 20.7208 29.832V32.8356C20.7208 33.9264 19.83 34.8172 18.7392 34.8172Z" fill="#AAB5FF"/>
<path fill-rule="evenodd" clip-rule="evenodd" d="M18.7392 34.3984H10.6879C9.82836 34.3984 9.12511 33.6951 9.12511 32.8356V29.832C9.12511 28.9725 9.82836 28.2692 10.6879 28.2692H18.7392C19.5988 28.2692 20.302 28.9725 20.302 29.832V32.8356C20.302 33.6951 19.5988 34.3984 18.7392 34.3984Z" fill="url(#paint18_radial)"/>
<path fill-rule="evenodd" clip-rule="evenodd" d="M7.7311 59.1557C6.94972 58.9588 6.14021 58.4493 5.5026 57.9617C4.83999 57.4554 3.47413 56.2302 3.25222 55.3988L3.14282 54.9894L3.8617 55.4801L3.88045 55.5113C4.00547 55.7395 4.3274 56.0614 4.51181 56.2489C4.87749 56.6178 5.26819 56.9709 5.67138 57.3054C6.13396 57.6898 6.68092 58.1118 7.21851 58.3868L7.23101 58.3931L8.47498 59.3401L7.7311 59.1557Z" fill="#AAB5FF"/>
<path fill-rule="evenodd" clip-rule="evenodd" d="M7.77173 59.0026L7.14975 58.5306C5.94329 57.9118 4.03672 56.1177 3.74605 55.5926L3.40849 55.3613C3.65853 56.3021 6.02143 58.5619 7.77173 59.0026Z" fill="#FFFBD4"/>
<path fill-rule="evenodd" clip-rule="evenodd" d="M21.0396 59.312L22.1398 58.3305L22.1585 58.3212C22.6961 58.0461 23.2431 57.6242 23.7057 57.2397C24.1057 56.9084 24.4964 56.5552 24.8652 56.1833C25.0497 55.9958 25.3716 55.6738 25.4966 55.4457L25.5216 55.4019L26.2249 55.0769L26.1373 55.4019C25.9154 56.2302 24.5527 57.4554 23.887 57.9648C23.2525 58.4493 22.4398 58.9588 21.6585 59.1588L21.0396 59.312Z" fill="#AAB5FF"/>
<path fill-rule="evenodd" clip-rule="evenodd" d="M21.6241 59.0026L22.2304 58.4618C23.4369 57.843 25.3434 56.0489 25.6341 55.5238L25.9873 55.3613C25.7373 56.3021 23.3744 58.5619 21.6241 59.0026Z" fill="#FFFBD4"/>
<defs>
<linearGradient id="paint0_linear" x1="3.3849" y1="15.4724" x2="3.3849" y2="7.54546" gradientUnits="userSpaceOnUse">
<stop stop-color="#404041"/>
<stop offset="0.27" stop-color="#808184"/>
<stop offset="0.54" stop-color="#A6A8AB"/>
<stop offset="1" stop-color="#231F20"/>
</linearGradient>
<linearGradient id="paint1_linear" x1="26.1007" y1="15.4724" x2="26.1007" y2="7.54546" gradientUnits="userSpaceOnUse">
<stop stop-color="#404041"/>
<stop offset="0.27" stop-color="#808184"/>
<stop offset="0.54" stop-color="#A6A8AB"/>
<stop offset="1" stop-color="#231F20"/>
</linearGradient>
<linearGradient id="paint2_linear" x1="2.71558" y1="50.1944" x2="2.71558" y2="42.2673" gradientUnits="userSpaceOnUse">
<stop stop-color="#404041"/>
<stop offset="0.27" stop-color="#808184"/>
<stop offset="0.54" stop-color="#A6A8AB"/>
<stop offset="1" stop-color="#231F20"/>
</linearGradient>
<linearGradient id="paint3_linear" x1="26.7701" y1="50.1944" x2="26.7701" y2="42.2673" gradientUnits="userSpaceOnUse">
<stop stop-color="#404041"/>
<stop offset="0.27" stop-color="#808184"/>
<stop offset="0.54" stop-color="#A6A8AB"/>
<stop offset="1" stop-color="#231F20"/>
</linearGradient>
<linearGradient id="paint4_linear" x1="14.7428" y1="59.0011" x2="14.7428" y2="61.8065" gradientUnits="userSpaceOnUse">
<stop stop-color="#AAB5FF"/>
</linearGradient>
<radialGradient id="paint5_radial" cx="0" cy="0" r="1" gradientUnits="userSpaceOnUse" gradientTransform="translate(15.529 30.9357) rotate(-180) scale(13.7421)">
<stop stop-color="#AEB0B3"/>
<stop offset="1" stop-color="#808184"/>
</radialGradient>
<radialGradient id="paint6_radial" cx="0" cy="0" r="1" gradientUnits="userSpaceOnUse" gradientTransform="translate(15.5745 31.0714) rotate(-180) scale(15.0304)">
<stop stop-color="#808184"/>
<stop offset="1" stop-color="#231F20"/>
</radialGradient>
<radialGradient id="paint7_radial" cx="0" cy="0" r="1" gradientUnits="userSpaceOnUse" gradientTransform="translate(14.9329 16.8377) rotate(-180) scale(12.0744)">
<stop stop-color="#808184"/>
<stop offset="1" stop-color="#231F20"/>
</radialGradient>
<linearGradient id="paint8_linear" x1="24.0416" y1="20.6269" x2="25.0101" y2="20.6269" gradientUnits="userSpaceOnUse">
<stop stop-color="#403F3A"/>
<stop offset="1" stop-color="#8B8B83"/>
</linearGradient>
<linearGradient id="paint9_linear" x1="23.9537" y1="13.6095" x2="24.8239" y2="13.6095" gradientUnits="userSpaceOnUse">
<stop stop-color="#231F20"/>
<stop offset="1" stop-color="#808184"/>
</linearGradient>
<linearGradient id="paint10_linear" x1="24.1066" y1="32.4714" x2="25.27" y2="32.4714" gradientUnits="userSpaceOnUse">
<stop stop-color="#403F3A"/>
<stop offset="1" stop-color="#8B8B83"/>
</linearGradient>
<linearGradient id="paint11_linear" x1="4.47595" y1="20.627" x2="5.44427" y2="20.627" gradientUnits="userSpaceOnUse">
<stop stop-color="#403F3A"/>
<stop offset="1" stop-color="#8B8B83"/>
</linearGradient>
<linearGradient id="paint12_linear" x1="4.66963" y1="13.6095" x2="5.49289" y2="13.6095" gradientUnits="userSpaceOnUse">
<stop stop-color="#403F3A"/>
<stop offset="1" stop-color="#8B8B83"/>
</linearGradient>
<linearGradient id="paint13_linear" x1="4.21596" y1="32.4714" x2="5.37928" y2="32.4714" gradientUnits="userSpaceOnUse">
<stop stop-color="#403F3A"/>
<stop offset="1" stop-color="#8B8B83"/>
</linearGradient>
<linearGradient id="paint14_linear" x1="25.8238" y1="26.9362" x2="25.8506" y2="28.4739" gradientUnits="userSpaceOnUse">
<stop stop-color="#D0D2D3"/>
<stop offset="0.11" stop-color="#F1F1F2"/>
<stop offset="0.68" stop-color="#F1F1F2"/>
<stop offset="1" stop-color="#D0D2D3"/>
</linearGradient>
<linearGradient id="paint15_linear" x1="25.6095" y1="15.9774" x2="25.6363" y2="17.5152" gradientUnits="userSpaceOnUse">
<stop stop-color="#D0D2D3"/>
<stop offset="0.11" stop-color="#F1F1F2"/>
<stop offset="0.68" stop-color="#F1F1F2"/>
<stop offset="1" stop-color="#D0D2D3"/>
</linearGradient>
<linearGradient id="paint16_linear" x1="3.63198" y1="28.4741" x2="3.65883" y2="26.9364" gradientUnits="userSpaceOnUse">
<stop stop-color="#D0D2D3"/>
<stop offset="0.11" stop-color="#F1F1F2"/>
<stop offset="0.68" stop-color="#F1F1F2"/>
<stop offset="1" stop-color="#D0D2D3"/>
</linearGradient>
<linearGradient id="paint17_linear" x1="3.84661" y1="17.5155" x2="3.87346" y2="15.9774" gradientUnits="userSpaceOnUse">
<stop stop-color="#D0D2D3"/>
<stop offset="0.11" stop-color="#F1F1F2"/>
<stop offset="0.68" stop-color="#F1F1F2"/>
<stop offset="1" stop-color="#D0D2D3"/>
</linearGradient>
<radialGradient id="paint18_radial" cx="0" cy="0" r="1" gradientUnits="userSpaceOnUse" gradientTransform="translate(15.1605 25.2042) rotate(-180) scale(12.1141)">
<stop stop-color="#808184"/>
<stop offset="1" stop-color="#231F20"/>
</radialGradient>
</defs>
</svg>
