<svg width="30" height="60" viewBox="0 0 30 60" fill="none" xmlns="http://www.w3.org/2000/svg">
<path fill-rule="evenodd" clip-rule="evenodd" d="M25.3964 52.967L25.388 44.725C25.3878 44.4844 25.5814 44.2904 25.822 44.2901L26.6847 44.2893C26.9222 44.289 27.1193 44.4826 27.1196 44.7233L27.128 52.9653C27.1282 53.2028 26.9346 53.3999 26.694 53.4002L25.8313 53.4011C25.5907 53.4013 25.3967 53.2077 25.3964 52.967Z" fill="#404041"/>
<path fill-rule="evenodd" clip-rule="evenodd" d="M25.5527 52.9669L25.5443 44.7249C25.5441 44.5717 25.669 44.4497 25.8222 44.4495L26.6848 44.4487C26.838 44.4485 26.96 44.5734 26.9602 44.7234L26.9686 52.9654C26.9687 53.1186 26.8438 53.2406 26.6938 53.2408L25.8312 53.2417C25.678 53.2449 25.5529 53.12 25.5527 52.9669Z" fill="url(#paint0_linear)"/>
<path fill-rule="evenodd" clip-rule="evenodd" d="M2.68013 52.9902L2.67171 44.7482C2.67146 44.5076 2.86505 44.3136 3.10571 44.3133L3.96836 44.3125C4.2059 44.3122 4.403 44.5058 4.40325 44.7465L4.41167 52.9885C4.41191 53.226 4.21833 53.4231 3.97766 53.4234L3.1119 53.4242C2.87436 53.4245 2.68037 53.2309 2.68013 52.9902Z" fill="#404041"/>
<path fill-rule="evenodd" clip-rule="evenodd" d="M2.83634 52.9901L2.82792 44.7481C2.82776 44.5949 2.95266 44.4729 3.10268 44.4727L3.96533 44.4719C4.11848 44.4717 4.2405 44.5966 4.24066 44.7466L4.24908 52.9886C4.24923 53.1418 4.12434 53.2638 3.97431 53.264L3.11167 53.2648C2.96164 53.2681 2.83649 53.1432 2.83634 52.9901Z" fill="url(#paint1_linear)"/>
<path fill-rule="evenodd" clip-rule="evenodd" d="M26.0299 18.2449L26.0214 10.0029C26.0212 9.76532 26.2148 9.56822 26.4554 9.56798L27.3212 9.56709C27.5588 9.56685 27.7559 9.76043 27.7561 10.0011L27.7645 18.2431C27.7648 18.4806 27.5712 18.6778 27.3305 18.678L26.4648 18.6789C26.2241 18.6791 26.0301 18.4855 26.0299 18.2449Z" fill="#404041"/>
<path fill-rule="evenodd" clip-rule="evenodd" d="M26.1861 18.2447L26.1776 10.0027C26.1775 9.84956 26.3024 9.72753 26.4524 9.72738L27.3182 9.7265C27.4713 9.72634 27.5934 9.85124 27.5935 10.0013L27.6019 18.2433C27.6021 18.3964 27.4772 18.5184 27.3272 18.5186L26.4614 18.5195C26.3114 18.5228 26.1862 18.3979 26.1861 18.2447Z" fill="url(#paint2_linear)"/>
<path fill-rule="evenodd" clip-rule="evenodd" d="M1.97572 18.2695L1.9673 10.0275C1.96706 9.78992 2.16064 9.59282 2.40131 9.59257L3.26395 9.59169C3.50149 9.59145 3.6986 9.78503 3.69884 10.0257L3.70726 18.2677C3.7075 18.5052 3.51392 18.7024 3.27326 18.7026L2.41061 18.7035C2.16995 18.7037 1.97597 18.5101 1.97572 18.2695Z" fill="#404041"/>
<path fill-rule="evenodd" clip-rule="evenodd" d="M2.13205 18.2693L2.12363 10.0273C2.12348 9.87416 2.24837 9.75213 2.3984 9.75198L3.26104 9.7511C3.41419 9.75094 3.53622 9.87584 3.53637 10.0259L3.54479 18.2679C3.54495 18.421 3.42005 18.543 3.27002 18.5432L2.40738 18.5441C2.25736 18.5474 2.13221 18.4225 2.13205 18.2693Z" fill="url(#paint3_linear)"/>
<path fill-rule="evenodd" clip-rule="evenodd" d="M3.61615 54.4989L2.51613 5.70741C2.46708 3.58523 7.34559 0.0952803 9.44907 0.0931316L20.2415 0.0821073C22.3481 0.0799554 27.2306 3.55993 27.189 5.68221L26.1887 54.4759C26.0429 61.7085 3.758 61.7906 3.61615 54.4989Z" fill="#630000"/>
<path fill-rule="evenodd" clip-rule="evenodd" d="M3.77555 54.4957L2.67554 5.70415C2.62968 3.65072 7.45515 0.251459 9.45236 0.249419L20.2448 0.238395C22.242 0.236355 27.0744 3.62575 27.0328 5.67927L26.0324 54.4729C25.8896 61.4961 3.91093 61.578 3.77555 54.4957Z" fill="#E0E0E0"/>
<path fill-rule="evenodd" clip-rule="evenodd" d="M9.33673 0.255753C9.37424 0.252589 9.41487 0.252545 9.45238 0.252506L20.2448 0.241482C20.2823 0.241444 20.3198 0.241408 20.3605 0.244492C20.0952 0.654208 19.6329 0.929727 19.1078 0.930264L10.5908 0.938964C10.0688 0.936371 9.60595 0.664922 9.33673 0.255753Z" fill="url(#paint4_linear)"/>
<path fill-rule="evenodd" clip-rule="evenodd" d="M4.56007 54.4792C4.55246 53.154 4.54016 53.3478 4.53255 52.0225L4.53229 51.7631L4.7637 51.8817C11.5277 55.3222 18.282 55.3153 25.0421 51.8609L25.2733 51.7419L25.2735 52.0014C25.2686 53.3266 25.2591 53.1328 25.251 54.4549C25.2513 54.7175 25.1984 54.9738 25.1112 55.2208C24.6188 56.6091 22.9069 57.4766 21.6071 57.9467C19.5232 58.6959 17.1262 58.9796 14.9195 58.985C12.7161 58.9904 10.3248 58.724 8.23927 57.9885C6.92921 57.5273 5.21867 56.6695 4.71091 55.2823C4.61689 55.0261 4.5666 54.7542 4.56007 54.4792Z" fill="#810000"/>
<path fill-rule="evenodd" clip-rule="evenodd" d="M4.71944 54.4759C4.72596 54.7353 4.76997 54.9853 4.86086 55.229C5.34981 56.5663 7.0447 57.399 8.29536 57.8416C10.3496 58.5677 12.7503 58.8341 14.9225 58.8287C17.0979 58.8234 19.5011 58.5396 21.5538 57.7968C22.7942 57.3486 24.4905 56.5061 24.9642 55.1679C25.0452 54.9365 25.0919 54.6958 25.0947 54.452C25.1026 52.9298 25.1094 53.5206 25.1172 51.9984C18.3134 55.4778 11.5091 55.4848 4.69818 52.0193C4.70286 53.5445 4.70851 52.9538 4.71944 54.4759Z" fill="#E0E0E0"/>
<path fill-rule="evenodd" clip-rule="evenodd" d="M7.02281 23.7559C6.57305 21.0028 5.07418 19.2977 4.62442 16.5446C4.54893 16.079 4.82352 15.6317 5.27657 15.4906C11.6756 13.4994 18.0797 13.3741 24.4735 15.4679C24.9175 15.6144 25.1868 16.0548 25.1122 16.5174C24.6681 19.2746 23.1727 20.9827 22.7286 23.7398C22.6882 23.993 22.554 24.2088 22.3448 24.3591C22.1355 24.5093 21.8887 24.5658 21.6354 24.5223C16.443 23.6275 13.3112 23.6307 8.12067 24.5361C7.86755 24.5802 7.62057 24.5242 7.41101 24.3743C7.19832 24.2214 7.0637 24.009 7.02281 23.7559Z" fill="#810000"/>
<path fill-rule="evenodd" clip-rule="evenodd" d="M25.2962 16.0796L25.1023 16.0079C17.9328 13.3742 11.7974 13.3805 4.63326 16.0289L4.43955 16.1009L3.72943 6.30939C3.66225 4.79358 7.59372 1.30147 9.46591 1.29955L20.2615 1.28853C22.2308 1.49593 26.0627 4.62067 25.9894 6.28352L25.2962 16.0796Z" fill="#630000"/>
<path fill-rule="evenodd" clip-rule="evenodd" d="M4.57688 15.8789C11.7848 13.2148 17.9452 13.2085 25.1553 15.8579L25.8301 6.27745C25.8628 4.67714 22.1403 1.64606 20.2429 1.44483C16.6486 1.44851 13.0573 1.45217 9.46298 1.45585C7.56599 1.66094 3.84972 4.69963 3.88573 6.29986L4.57688 15.8789Z" fill="#E0E0E0"/>
<path fill-rule="evenodd" clip-rule="evenodd" d="M7.43539 23.6867C6.98563 20.9335 5.48676 19.2285 5.037 16.4754C4.99297 16.216 5.149 15.9689 5.39896 15.8905C11.7105 13.9275 18.024 13.7961 24.3396 15.865C24.5866 15.946 24.7369 16.1896 24.6934 16.4459C24.2493 19.2031 22.7539 20.9143 22.3066 23.6715C22.2849 23.8153 22.2131 23.931 22.0945 24.0155C21.9758 24.1 21.8445 24.1314 21.7007 24.1065C16.4458 23.1993 13.2921 23.2025 8.04219 24.1205C7.89844 24.1457 7.76714 24.1145 7.64828 24.0303C7.53255 23.946 7.46054 23.8304 7.43539 23.6867Z" fill="url(#paint5_radial)"/>
<path fill-rule="evenodd" clip-rule="evenodd" d="M7.43537 23.6867C6.9856 20.9336 5.48673 19.2286 5.03697 16.4754C5.01495 16.3348 5.04919 16.1972 5.12721 16.0878C11.3576 14.1936 17.5898 14.0966 23.8273 16.1374C24.0743 16.2184 24.2246 16.4621 24.1811 16.7215C23.7369 19.4787 22.2416 21.1868 21.7974 23.944C21.7881 24.0034 21.7694 24.0596 21.7413 24.1097C21.7288 24.1097 21.7163 24.1066 21.7038 24.1035C16.4489 23.1962 13.2952 23.1994 8.04528 24.1174C7.90153 24.1426 7.77023 24.1114 7.65137 24.0272C7.53252 23.946 7.46052 23.8305 7.43537 23.6867Z" fill="url(#paint6_radial)"/>
<path fill-rule="evenodd" clip-rule="evenodd" d="M23.8727 51.4152C21.0791 55.1062 8.71139 55.1188 5.91028 51.4335C5.31271 50.8528 5.54547 49.2398 5.6979 48.5333C5.84722 47.8361 6.14006 46.9013 6.63648 46.3757L7.01426 45.9721C8.90161 48.5706 20.8849 48.5678 22.7513 45.9529L23.133 46.3588C24.0748 47.3518 24.7001 50.6048 23.8727 51.4152Z" fill="#A30D11"/>
<path fill-rule="evenodd" clip-rule="evenodd" d="M6.94002 46.6598C6.05645 47.6015 5.61573 50.6431 6.21948 51.1488C8.80474 54.6468 20.9755 54.6343 23.5568 51.1311C24.1595 50.6241 23.7125 47.5835 22.8271 46.6436C21.3918 49.0611 8.38332 49.04 6.94002 46.6598Z" fill="url(#paint7_radial)"/>
<path fill-rule="evenodd" clip-rule="evenodd" d="M4.48921 34.029C4.24543 34.0386 4.04235 34.1263 3.92693 34.3421L3.8739 34.439L3.87713 34.5484C3.94915 37.7395 4.03055 40.9275 4.10569 44.1154L4.10903 44.3217L4.27793 44.4434C4.45935 44.5745 4.66567 44.615 4.88132 44.6054C4.59707 44.7744 4.34412 44.9841 4.18501 45.2718L4.12573 45.3781L4.33559 48.8754C6.50633 47.3979 6.34123 44.882 6.34013 43.8037C6.33708 40.822 6.33404 37.8402 6.33099 34.8554L6.33016 34.0427C6.32821 32.1393 6.32627 30.2358 6.32433 28.3355L6.32432 28.3261L6.32431 28.3167C6.25378 26.5853 6.09237 24.6226 5.57496 22.9604C5.30214 22.0855 4.91059 21.242 4.25357 20.5894L3.5152 19.8619L3.53814 20.8996C3.63297 25.0033 3.76531 29.107 3.85701 33.2107L3.85703 33.2295L3.86018 33.2482C3.89808 33.6326 4.15773 33.8668 4.48921 34.029Z" fill="#810000"/>
<path fill-rule="evenodd" clip-rule="evenodd" d="M4.52138 44.1088C4.44609 40.7708 4.37125 37.8798 4.29282 34.5418C4.45192 34.2447 5.51821 34.7124 5.90593 34.8652C5.90897 37.8469 5.91202 40.8287 5.91507 43.8136C5.52145 44.0046 4.85294 44.3491 4.52138 44.1088Z" fill="url(#paint8_linear)"/>
<path fill-rule="evenodd" clip-rule="evenodd" d="M4.70672 48.1123L4.54776 45.4808C4.80045 45.0211 5.52843 44.7484 5.91892 44.5574C5.88293 46.0358 5.78076 46.9923 4.70672 48.1123Z" fill="url(#paint9_linear)"/>
<path fill-rule="evenodd" clip-rule="evenodd" d="M4.27579 33.2071C4.16782 28.4846 4.06175 25.6186 3.95691 20.896C4.80791 21.7359 5.70042 23.4321 5.90234 28.339C5.90429 30.2425 5.90623 32.1459 5.90817 34.0462C5.43293 33.8842 4.33259 33.7384 4.27579 33.2071Z" fill="url(#paint10_linear)"/>
<path fill-rule="evenodd" clip-rule="evenodd" d="M25.2802 34.0077C25.524 34.0169 25.7272 34.1042 25.8431 34.3197L25.8932 34.4166L25.8902 34.5259C25.8247 37.7172 25.7498 40.9053 25.6812 44.0934L25.6782 44.2997L25.5096 44.4218C25.3316 44.5532 25.1222 44.5941 24.9065 44.5849C25.1911 44.7534 25.4445 44.9625 25.6073 45.2499L25.6668 45.3561L25.4641 48.8538C23.2904 47.3808 23.4503 44.8646 23.4492 43.7863C23.4462 40.8045 23.4431 37.8228 23.4401 34.8379L23.4392 34.0252C23.4373 32.1218 23.4354 30.2184 23.4334 28.318L23.4334 28.3087L23.4334 28.2993C23.5004 26.5677 23.6578 24.6047 24.1718 22.9414C24.4428 22.066 24.8295 21.2217 25.4883 20.5678L26.2252 19.8388L26.2044 20.8764C26.118 24.9804 25.994 29.0843 25.9107 33.1882L25.9107 33.207L25.9076 33.2257C25.8673 33.6102 25.6082 33.8449 25.2802 34.0077Z" fill="#810000"/>
<path fill-rule="evenodd" clip-rule="evenodd" d="M25.2655 44.0875C25.334 40.7494 25.4029 37.8582 25.4745 34.52C25.3148 34.2233 24.2526 34.6932 23.8621 34.8467C23.8651 37.8285 23.8682 40.8102 23.8712 43.7951C24.2683 43.9854 24.9376 44.3285 25.2655 44.0875Z" fill="url(#paint11_linear)"/>
<path fill-rule="evenodd" clip-rule="evenodd" d="M25.0882 48.0915L25.2418 45.4596C24.9882 45.0004 24.2597 44.7293 23.8688 44.539C23.9078 46.0173 24.0119 46.9737 25.0882 48.0915Z" fill="url(#paint12_linear)"/>
<path fill-rule="evenodd" clip-rule="evenodd" d="M25.4887 33.1855C25.587 28.4627 25.6872 25.5965 25.7824 20.8737C24.9331 21.7153 24.0441 23.4134 23.8522 28.3207C23.8542 30.2241 23.8561 32.1276 23.858 34.0279C24.3361 33.8649 25.433 33.7169 25.4887 33.1855Z" fill="url(#paint13_linear)"/>
<path fill-rule="evenodd" clip-rule="evenodd" d="M3.62493 32.5015C3.6216 32.2952 3.57382 31.4232 3.76136 31.423L3.93326 31.4228L3.9662 33.0762C3.73493 33.0983 3.62834 32.7765 3.62493 32.5015Z" fill="#929497"/>
<path fill-rule="evenodd" clip-rule="evenodd" d="M3.92238 32.9981C3.7255 33.017 3.67511 32.6483 3.67496 32.5045C3.67163 32.2982 3.64267 31.4887 3.76457 31.4886C3.79582 31.4886 3.8177 31.4886 3.88959 31.4885C3.89948 31.9979 3.90936 32.4886 3.92238 32.9981Z" fill="url(#paint14_linear)"/>
<path fill-rule="evenodd" clip-rule="evenodd" d="M3.8518 43.4624C3.84846 43.2561 3.80069 42.3841 3.98822 42.3839L4.16013 42.3838L4.19307 44.0371C3.9618 44.0561 3.8552 43.7343 3.8518 43.4624Z" fill="#929497"/>
<path fill-rule="evenodd" clip-rule="evenodd" d="M4.14614 43.956C3.95238 43.9749 3.89887 43.6062 3.89872 43.4624C3.89539 43.2561 3.86643 42.4466 3.99145 42.4465C4.01958 42.4465 4.04459 42.4464 4.11647 42.4464C4.12637 42.9558 4.13625 43.4465 4.14614 43.956Z" fill="url(#paint15_linear)"/>
<path fill-rule="evenodd" clip-rule="evenodd" d="M26.1412 32.4784C26.1441 32.2721 26.1901 31.4001 26.0026 31.4002L25.8307 31.4004L25.8011 33.0539C26.0324 33.0755 26.1384 32.7535 26.1412 32.4784Z" fill="#929497"/>
<path fill-rule="evenodd" clip-rule="evenodd" d="M25.848 32.9757C26.0418 32.9942 26.0914 32.6254 26.0944 32.4816C26.0973 32.2753 26.1246 31.4658 26.0027 31.4659C25.9746 31.4659 25.9496 31.466 25.8777 31.466C25.8657 31.9755 25.8568 32.4662 25.848 32.9757Z" fill="url(#paint16_linear)"/>
<path fill-rule="evenodd" clip-rule="evenodd" d="M25.9368 43.4398C25.9397 43.2336 25.9857 42.3615 25.7982 42.3617L25.6263 42.3618L25.5967 44.0153C25.828 44.0338 25.934 43.7118 25.9368 43.4398Z" fill="#929497"/>
<path fill-rule="evenodd" clip-rule="evenodd" d="M25.6434 43.934C25.8404 43.9526 25.89 43.5837 25.8899 43.4399C25.8928 43.2336 25.9201 42.4241 25.7982 42.4242C25.7701 42.4242 25.745 42.4243 25.6732 42.4243C25.6612 42.9338 25.6523 43.4245 25.6434 43.934Z" fill="url(#paint17_linear)"/>
<path fill-rule="evenodd" clip-rule="evenodd" d="M6.83889 45.5941C6.72432 37.4647 6.8701 30.2477 6.56549 25.7848C6.52107 25.1316 7.00182 24.5623 7.67683 24.4616C12.4457 23.7659 17.2996 23.761 22.0699 24.4469C22.7451 24.5431 23.227 25.1145 23.1839 25.7678C22.8884 30.2345 23.0489 37.4512 22.951 45.5777C22.9824 48.8282 6.81408 48.8447 6.83889 45.5941Z" fill="#E0E0E0"/>
<path fill-rule="evenodd" clip-rule="evenodd" d="M9.19073 4.19098C9.46394 5.44404 9.71859 6.9034 9.92022 8.46595C10.1219 10.0254 10.2452 11.488 10.2965 12.7413C10.0233 11.4882 9.76867 10.0289 9.56704 8.46632C9.36541 6.90688 9.24202 5.44426 9.19073 4.19098ZM20.5145 4.17941C20.2439 5.43303 19.9922 6.8929 19.7938 8.45587C19.5953 10.0157 19.4749 11.4786 19.4262 12.732C19.6968 11.4784 19.9485 10.0185 20.1469 8.45551C20.3454 6.89567 20.4658 5.4328 20.5145 4.17941Z" fill="#AA0F14"/>
<path fill-rule="evenodd" clip-rule="evenodd" d="M20.6503 33.0966C20.4708 34.7814 20.354 36.7475 20.3311 38.8479C20.3083 40.9483 20.379 42.9111 20.5183 44.5987C20.6978 42.9138 20.8146 40.9478 20.8375 38.8474C20.8635 36.7501 20.7927 34.7842 20.6503 33.0966ZM9.114 33.1084C9.297 34.7929 9.41778 36.7587 9.44493 38.859C9.47208 40.9594 9.40532 42.9223 9.26952 44.6102C9.08652 42.9257 8.96574 40.9599 8.93859 38.8595C8.90832 36.7623 8.97507 34.7963 9.114 33.1084Z" fill="#AA0F14"/>
<path fill-rule="evenodd" clip-rule="evenodd" d="M0.228274 21.0124C0.11542 20.6843 0.0681704 20.3249 0.25226 20.0153C0.480031 19.6306 0.995551 19.4426 1.40175 19.3202C1.94854 19.1509 2.51102 19.0378 3.05467 18.8528C3.25151 18.7839 3.44522 18.7087 3.63578 18.6178L3.77324 18.5521L3.81402 18.6989C3.92697 19.1176 4.03991 19.5332 4.14973 19.9519L4.18111 20.0738L4.05925 20.1052C2.83125 20.4346 1.60638 20.764 0.378385 21.0966L0.265899 21.128L0.228274 21.0124Z" fill="#810000"/>
<path fill-rule="evenodd" clip-rule="evenodd" d="M0.34697 20.9685C-0.23608 19.3032 2.0489 19.5196 3.69212 18.7272C3.80507 19.1428 3.91801 19.5615 4.02783 19.9802C2.79984 20.3096 1.57184 20.6391 0.34697 20.9685Z" fill="#E0E0E0"/>
<path d="M3.42956 18.677L2.92554 18.8126L3.32518 20.2975L3.8292 20.1619L3.42956 18.677Z" fill="#810000"/>
<path d="M3.33582 18.8348L3.07623 18.9046L3.41051 20.1482L3.67009 20.0784L3.33582 18.8348Z" fill="#B01117"/>
<path fill-rule="evenodd" clip-rule="evenodd" d="M29.5144 20.9824C29.6266 20.6541 29.6731 20.2946 29.4884 19.9854C29.2598 19.6012 28.7439 19.4142 28.3375 19.2927C27.7903 19.1245 27.2276 19.0125 26.6836 18.8287C26.4866 18.7601 26.2928 18.6853 26.102 18.5949L25.9644 18.5294L25.9239 18.6763C25.8119 19.0952 25.7029 19.5111 25.5908 19.93L25.5597 20.0519L25.6816 20.083C26.9103 20.41 28.1358 20.7369 29.3645 21.067L29.477 21.0981L29.5144 20.9824Z" fill="#E0E0E0"/>
<path fill-rule="evenodd" clip-rule="evenodd" d="M29.3956 20.9388C29.9722 19.2723 27.6908 19.4934 26.0459 18.7044C25.9338 19.1202 25.8217 19.5391 25.7128 19.9581C26.9383 20.285 28.167 20.6119 29.3956 20.9388Z" fill="#E0E0E0"/>
<path fill-rule="evenodd" clip-rule="evenodd" d="M26.4195 20.2761L26.8149 18.7911L26.3116 18.6572L25.9161 20.1422L26.4195 20.2761Z" fill="#E0E0E0"/>
<path fill-rule="evenodd" clip-rule="evenodd" d="M26.3287 20.1231L26.6619 18.8788L26.4024 18.8103L26.0692 20.0514L26.3287 20.1231Z" fill="#F2F2F2"/>
<path fill-rule="evenodd" clip-rule="evenodd" d="M10.878 25.1209L18.9294 25.1127C20.0202 25.1116 20.9119 26.0014 20.913 27.0922L20.916 30.0959C20.9172 31.1867 20.0273 32.0784 18.9365 32.0795L10.8851 32.0877C9.79431 32.0888 8.90263 31.1989 8.90152 30.1081L8.89845 27.1045C8.89733 26.0137 9.7872 25.122 10.878 25.1209Z" fill="#810000"/>
<path fill-rule="evenodd" clip-rule="evenodd" d="M10.8784 25.5397L18.9298 25.5315C19.7893 25.5306 20.4933 26.2331 20.4942 27.0927L20.4972 30.0963C20.4981 30.9558 19.7956 31.6598 18.9361 31.6607L10.8847 31.6689C10.0252 31.6698 9.32122 30.9672 9.32034 30.1077L9.31727 27.1041C9.31639 26.2446 10.0189 25.5406 10.8784 25.5397Z" fill="url(#paint18_radial)"/>
<path fill-rule="evenodd" clip-rule="evenodd" d="M21.8613 0.771169C22.6428 0.967279 23.4529 1.47591 24.091 1.96284C24.7541 2.46849 26.1212 3.69231 26.344 4.52347L26.4538 4.9328L25.7344 4.44283L25.7156 4.4116C25.5904 4.18356 25.2681 3.86196 25.0835 3.67462C24.7174 3.30618 24.3264 2.95339 23.9229 2.61937C23.4599 2.2354 22.9125 1.81402 22.3746 1.53952L22.3621 1.53329L21.1172 0.587524L21.8613 0.771169Z" fill="#810000"/>
<path fill-rule="evenodd" clip-rule="evenodd" d="M21.8208 0.924377L22.4433 1.3957C23.6503 2.01332 25.5588 3.80542 25.85 4.33022L26.1878 4.56116C25.9368 3.62063 23.5715 1.36329 21.8208 0.924377Z" fill="#FFFBD4"/>
<path fill-rule="evenodd" clip-rule="evenodd" d="M8.55262 0.628492L7.45344 1.61103L7.43469 1.62042C6.89738 1.89602 6.35085 2.31853 5.88866 2.70344C5.48893 3.03516 5.0986 3.38873 4.73017 3.76104C4.54596 3.94876 4.22436 4.27103 4.09957 4.49932L4.07461 4.5431L3.3717 4.86887L3.45888 4.54373C3.67995 3.71523 5.04142 2.48864 5.70664 1.9785C6.34063 1.4934 7.15274 0.983104 7.93392 0.782272L8.55262 0.628492Z" fill="#810000"/>
<path fill-rule="evenodd" clip-rule="evenodd" d="M7.96846 0.938536L7.36266 1.47987C6.15684 2.09996 4.2521 3.89596 3.96196 4.42134L3.60894 4.58423C3.85803 3.64319 6.21861 1.38102 7.96846 0.938536Z" fill="#FFFBD4"/>
<defs>
<linearGradient id="paint0_linear" x1="26.2521" y1="44.4501" x2="26.2602" y2="52.377" gradientUnits="userSpaceOnUse">
<stop stop-color="#404041"/>
<stop offset="0.27" stop-color="#808184"/>
<stop offset="0.54" stop-color="#A6A8AB"/>
<stop offset="1" stop-color="#231F20"/>
</linearGradient>
<linearGradient id="paint1_linear" x1="3.53626" y1="44.4733" x2="3.54435" y2="52.4002" gradientUnits="userSpaceOnUse">
<stop stop-color="#404041"/>
<stop offset="0.27" stop-color="#808184"/>
<stop offset="0.54" stop-color="#A6A8AB"/>
<stop offset="1" stop-color="#231F20"/>
</linearGradient>
<linearGradient id="paint2_linear" x1="26.8859" y1="9.72737" x2="26.894" y2="17.6545" gradientUnits="userSpaceOnUse">
<stop stop-color="#404041"/>
<stop offset="0.27" stop-color="#808184"/>
<stop offset="0.54" stop-color="#A6A8AB"/>
<stop offset="1" stop-color="#231F20"/>
</linearGradient>
<linearGradient id="paint3_linear" x1="2.83147" y1="9.75197" x2="2.83957" y2="17.6791" gradientUnits="userSpaceOnUse">
<stop stop-color="#404041"/>
<stop offset="0.27" stop-color="#808184"/>
<stop offset="0.54" stop-color="#A6A8AB"/>
<stop offset="1" stop-color="#231F20"/>
</linearGradient>
<linearGradient id="paint4_linear" x1="14.8498" y1="0.932925" x2="14.8469" y2="-1.87241" gradientUnits="userSpaceOnUse">
<stop stop-color="#810000"/>
<stop offset="0.07" stop-color="#B01117"/>
<stop offset="0.5" stop-color="#EC1C24"/>
<stop offset="0.93" stop-color="#B01117"/>
<stop offset="1" stop-color="#810000"/>
</linearGradient>
<radialGradient id="paint5_radial" cx="0" cy="0" r="1" gradientUnits="userSpaceOnUse" gradientTransform="translate(14.0922 28.9991) rotate(-0.0585269) scale(13.7421)">
<stop stop-color="#AEB0B3"/>
<stop offset="1" stop-color="#808184"/>
</radialGradient>
<radialGradient id="paint6_radial" cx="0" cy="0" r="1" gradientUnits="userSpaceOnUse" gradientTransform="translate(14.0466 28.8635) rotate(-0.0585269) scale(15.0304)">
<stop stop-color="#808184"/>
<stop offset="1" stop-color="#231F20"/>
</radialGradient>
<radialGradient id="paint7_radial" cx="0" cy="0" r="1" gradientUnits="userSpaceOnUse" gradientTransform="translate(14.7027 43.0965) rotate(-0.0585269) scale(12.0744)">
<stop stop-color="#808184"/>
<stop offset="1" stop-color="#231F20"/>
</radialGradient>
<linearGradient id="paint8_linear" x1="5.5902" y1="39.3166" x2="4.62169" y2="39.3176" gradientUnits="userSpaceOnUse">
<stop stop-color="#403F3A"/>
<stop offset="1" stop-color="#8B8B83"/>
</linearGradient>
<linearGradient id="paint9_linear" x1="5.68523" y1="46.3339" x2="4.81505" y2="46.3348" gradientUnits="userSpaceOnUse">
<stop stop-color="#231F20"/>
<stop offset="1" stop-color="#808184"/>
</linearGradient>
<linearGradient id="paint10_linear" x1="5.51305" y1="27.4722" x2="4.34963" y2="27.4734" gradientUnits="userSpaceOnUse">
<stop stop-color="#403F3A"/>
<stop offset="1" stop-color="#8B8B83"/>
</linearGradient>
<linearGradient id="paint11_linear" x1="25.1558" y1="39.2965" x2="24.1875" y2="39.2975" gradientUnits="userSpaceOnUse">
<stop stop-color="#403F3A"/>
<stop offset="1" stop-color="#8B8B83"/>
</linearGradient>
<linearGradient id="paint12_linear" x1="24.9693" y1="46.3142" x2="24.146" y2="46.315" gradientUnits="userSpaceOnUse">
<stop stop-color="#403F3A"/>
<stop offset="1" stop-color="#8B8B83"/>
</linearGradient>
<linearGradient id="paint13_linear" x1="25.4037" y1="27.4519" x2="24.2404" y2="27.4531" gradientUnits="userSpaceOnUse">
<stop stop-color="#403F3A"/>
<stop offset="1" stop-color="#8B8B83"/>
</linearGradient>
<linearGradient id="paint14_linear" x1="3.80156" y1="33.0091" x2="3.77314" y2="31.4714" gradientUnits="userSpaceOnUse">
<stop stop-color="#D0D2D3"/>
<stop offset="0.11" stop-color="#F1F1F2"/>
<stop offset="0.68" stop-color="#F1F1F2"/>
<stop offset="1" stop-color="#D0D2D3"/>
</linearGradient>
<linearGradient id="paint15_linear" x1="4.02701" y1="43.9677" x2="3.99859" y2="42.43" gradientUnits="userSpaceOnUse">
<stop stop-color="#D0D2D3"/>
<stop offset="0.11" stop-color="#F1F1F2"/>
<stop offset="0.68" stop-color="#F1F1F2"/>
<stop offset="1" stop-color="#D0D2D3"/>
</linearGradient>
<linearGradient id="paint16_linear" x1="25.9917" y1="31.4486" x2="25.9664" y2="32.9863" gradientUnits="userSpaceOnUse">
<stop stop-color="#D0D2D3"/>
<stop offset="0.11" stop-color="#F1F1F2"/>
<stop offset="0.68" stop-color="#F1F1F2"/>
<stop offset="1" stop-color="#D0D2D3"/>
</linearGradient>
<linearGradient id="paint17_linear" x1="25.7883" y1="42.4074" x2="25.763" y2="43.9455" gradientUnits="userSpaceOnUse">
<stop stop-color="#D0D2D3"/>
<stop offset="0.11" stop-color="#F1F1F2"/>
<stop offset="0.68" stop-color="#F1F1F2"/>
<stop offset="1" stop-color="#D0D2D3"/>
</linearGradient>
<radialGradient id="paint18_radial" cx="0" cy="0" r="1" gradientUnits="userSpaceOnUse" gradientTransform="translate(14.4666 34.7302) rotate(-0.0585269) scale(12.1141)">
<stop stop-color="#808184"/>
<stop offset="1" stop-color="#231F20"/>
</radialGradient>
</defs>
</svg>
