<svg width="24" height="24" viewBox="0 0 24 24" fill="none" xmlns="http://www.w3.org/2000/svg">
<path d="M12 0.959991C5.90812 0.959991 0.959991 5.90812 0.959991 12C0.959991 18.0919 5.90812 23.04 12 23.04C18.0919 23.04 23.04 18.0919 23.04 12H22.08C22.08 17.5725 17.5725 22.08 12 22.08C6.42749 22.08 1.91999 17.5725 1.91999 12C1.91999 6.42749 6.42749 1.91999 12 1.91999C14.61 1.91999 16.9819 2.91187 18.7725 4.53562L17.28 6.23999L21.6 6.71999L20.64 2.39999L19.4025 3.81374C17.445 2.04187 14.8462 0.959991 12 0.959991Z" fill="#A8ADE0"/>
</svg>
